<?xml version="1.0" encoding="UTF-8" standalone="no"?>
<svg
   xmlns:dc="http://purl.org/dc/elements/1.1/"
   xmlns:cc="http://creativecommons.org/ns#"
   xmlns:rdf="http://www.w3.org/1999/02/22-rdf-syntax-ns#"
   xmlns:svg="http://www.w3.org/2000/svg"
   xmlns="http://www.w3.org/2000/svg"
   xmlns:sodipodi="http://sodipodi.sourceforge.net/DTD/sodipodi-0.dtd"
   xmlns:inkscape="http://www.inkscape.org/namespaces/inkscape"
   version="1.1"
   viewBox="0 0 1434.2835 791.99475"
   stroke-miterlimit="10"
   id="svg2"
   inkscape:version="0.91 r13725"
   sodipodi:docname="SAC.svg"
   width="1434.2834"
   height="791.99475"
   style="fill:none;stroke:none;stroke-linecap:square;stroke-miterlimit:10">
  <metadata
     id="metadata425">
    <rdf:RDF>
      <cc:Work
         rdf:about="">
        <dc:format>image/svg+xml</dc:format>
        <dc:type
           rdf:resource="http://purl.org/dc/dcmitype/StillImage" />
        <dc:title></dc:title>
      </cc:Work>
    </rdf:RDF>
  </metadata>
  <defs
     id="defs423" />
  <sodipodi:namedview
     pagecolor="#ffffff"
     bordercolor="#666666"
     borderopacity="1"
     objecttolerance="10"
     gridtolerance="10"
     guidetolerance="10"
     inkscape:pageopacity="0"
     inkscape:pageshadow="2"
     inkscape:window-width="1379"
     inkscape:window-height="783"
     id="namedview421"
     showgrid="false"
     fit-margin-top="0"
     fit-margin-left="0"
     fit-margin-right="0"
     fit-margin-bottom="0"
     inkscape:zoom="0.2161358"
     inkscape:cx="735.64861"
     inkscape:cy="368.23704"
     inkscape:window-x="0"
     inkscape:window-y="0"
     inkscape:window-maximized="0"
     inkscape:current-layer="svg2" />
  <clipPath
     id="p.0">
    <path
       d="m 0,0 1434.2834,0 0,791.99475 L 0,791.99475 0,0 Z"
       id="path5"
       inkscape:connector-curvature="0"
       style="clip-rule:nonzero" />
  </clipPath>
  <g
     clip-path="url(#p.0)"
     id="g7">
    <path
       d="m 0,0 1434.2834,0 0,791.99475 -1434.2834,0 z"
       id="path9"
       inkscape:connector-curvature="0"
       style="fill:#000000;fill-opacity:0;fill-rule:evenodd" />
    <path
       d="m 273.42258,48.52231 270.3622,0 0,324.25198 -270.3622,0 z"
       id="path11"
       inkscape:connector-curvature="0"
       style="fill:#d9ead3;fill-rule:evenodd" />
    <path
       d="m 273.42258,48.52231 270.3622,0 0,324.25198 -270.3622,0 z"
       id="path13"
       inkscape:connector-curvature="0"
       style="fill-rule:evenodd;stroke:#274e13;stroke-width:2;stroke-linecap:butt;stroke-linejoin:round;stroke-dasharray:16, 6" />
    <path
       d="m 88.88714,235.26003 0,0 c 0,-5.23593 4.244568,-9.4805 9.480507,-9.4805 l 37.920883,0 0,0 c 2.51439,0 4.92578,0.99884 6.70372,2.77678 1.77794,1.77794 2.77678,4.18935 2.77678,6.70372 l 0,315.2752 c 0,5.23596 -4.24457,9.48053 -9.4805,9.48053 l -37.920883,0 c -5.235939,0 -9.480507,-4.24457 -9.480507,-9.48053 z"
       id="path15"
       inkscape:connector-curvature="0"
       style="fill:#ffffff;fill-rule:evenodd" />
    <path
       d="m 88.88714,235.26003 0,0 c 0,-5.23593 4.244568,-9.4805 9.480507,-9.4805 l 37.920883,0 0,0 c 2.51439,0 4.92578,0.99884 6.70372,2.77678 1.77794,1.77794 2.77678,4.18935 2.77678,6.70372 l 0,315.2752 c 0,5.23596 -4.24457,9.48053 -9.4805,9.48053 l -37.920883,0 c -5.235939,0 -9.480507,-4.24457 -9.480507,-9.48053 z"
       id="path17"
       inkscape:connector-curvature="0"
       style="fill-rule:evenodd;stroke:#000000;stroke-width:2;stroke-linecap:butt;stroke-linejoin:round" />
    <path
       d="m 95.561676,269.32547 0,0 c 0,-11.77628 9.546564,-21.32285 21.322834,-21.32285 l 0,0 c 5.65517,0 11.07872,2.24651 15.07753,6.24532 3.99881,3.9988 6.24531,9.42235 6.24531,15.07753 l 0,0 c 0,11.77628 -9.54655,21.32282 -21.32284,21.32282 l 0,0 c -11.77627,0 -21.322834,-9.54654 -21.322834,-21.32282 z"
       id="path19"
       inkscape:connector-curvature="0"
       style="fill:#d9d9d9;fill-rule:evenodd" />
    <path
       d="m 95.561676,269.32547 0,0 c 0,-11.77628 9.546564,-21.32285 21.322834,-21.32285 l 0,0 c 5.65517,0 11.07872,2.24651 15.07753,6.24532 3.99881,3.9988 6.24531,9.42235 6.24531,15.07753 l 0,0 c 0,11.77628 -9.54655,21.32282 -21.32284,21.32282 l 0,0 c -11.77627,0 -21.322834,-9.54654 -21.322834,-21.32282 z"
       id="path21"
       inkscape:connector-curvature="0"
       style="fill-rule:evenodd;stroke:#000000;stroke-width:2;stroke-linecap:butt;stroke-linejoin:round" />
    <path
       d="m 95.561676,323.54855 0,0 c 0,-11.77628 9.546564,-21.32285 21.322834,-21.32285 l 0,0 c 5.65517,0 11.07872,2.24653 15.07753,6.24534 3.99881,3.99881 6.24531,9.42236 6.24531,15.07751 l 0,0 c 0,11.77628 -9.54655,21.32285 -21.32284,21.32285 l 0,0 c -11.77627,0 -21.322834,-9.54657 -21.322834,-21.32285 z"
       id="path23"
       inkscape:connector-curvature="0"
       style="fill:#d9d9d9;fill-rule:evenodd" />
    <path
       d="m 95.561676,323.54855 0,0 c 0,-11.77628 9.546564,-21.32285 21.322834,-21.32285 l 0,0 c 5.65517,0 11.07872,2.24653 15.07753,6.24534 3.99881,3.99881 6.24531,9.42236 6.24531,15.07751 l 0,0 c 0,11.77628 -9.54655,21.32285 -21.32284,21.32285 l 0,0 c -11.77627,0 -21.322834,-9.54657 -21.322834,-21.32285 z"
       id="path25"
       inkscape:connector-curvature="0"
       style="fill-rule:evenodd;stroke:#000000;stroke-width:2;stroke-linecap:butt;stroke-linejoin:round" />
    <path
       d="m 95.561676,523.98425 0,0 c 0,-11.77631 9.546564,-21.32285 21.322834,-21.32285 l 0,0 c 5.65517,0 11.07872,2.24653 15.07753,6.24534 3.99881,3.99878 6.24531,9.42236 6.24531,15.07751 l 0,0 c 0,11.77625 -9.54655,21.32282 -21.32284,21.32282 l 0,0 c -11.77627,0 -21.322834,-9.54657 -21.322834,-21.32282 z"
       id="path27"
       inkscape:connector-curvature="0"
       style="fill:#d9d9d9;fill-rule:evenodd" />
    <path
       d="m 95.561676,523.98425 0,0 c 0,-11.77631 9.546564,-21.32285 21.322834,-21.32285 l 0,0 c 5.65517,0 11.07872,2.24653 15.07753,6.24534 3.99881,3.99878 6.24531,9.42236 6.24531,15.07751 l 0,0 c 0,11.77625 -9.54655,21.32282 -21.32284,21.32282 l 0,0 c -11.77627,0 -21.322834,-9.54657 -21.322834,-21.32282 z"
       id="path29"
       inkscape:connector-curvature="0"
       style="fill-rule:evenodd;stroke:#000000;stroke-width:2;stroke-linecap:butt;stroke-linejoin:round" />
    <path
       d="m 95.561676,376.85828 0,0 c 0,-11.77628 9.546564,-21.32285 21.322834,-21.32285 l 0,0 c 5.65517,0 11.07872,2.24653 15.07753,6.24534 3.99881,3.99878 6.24531,9.42233 6.24531,15.07751 l 0,0 c 0,11.77628 -9.54655,21.32282 -21.32284,21.32282 l 0,0 c -11.77627,0 -21.322834,-9.54654 -21.322834,-21.32282 z"
       id="path31"
       inkscape:connector-curvature="0"
       style="fill:#d9d9d9;fill-rule:evenodd" />
    <path
       d="m 95.561676,376.85828 0,0 c 0,-11.77628 9.546564,-21.32285 21.322834,-21.32285 l 0,0 c 5.65517,0 11.07872,2.24653 15.07753,6.24534 3.99881,3.99878 6.24531,9.42233 6.24531,15.07751 l 0,0 c 0,11.77628 -9.54655,21.32282 -21.32284,21.32282 l 0,0 c -11.77627,0 -21.322834,-9.54654 -21.322834,-21.32282 z"
       id="path33"
       inkscape:connector-curvature="0"
       style="fill-rule:evenodd;stroke:#000000;stroke-width:2;stroke-linecap:butt;stroke-linejoin:round" />
    <path
       d="m 109.1063,424.3701 0,0 c 0,-4.41827 3.58172,-8 8,-8 l 0,0 c 2.12173,0 4.15656,0.84283 5.65685,2.34314 1.50029,1.50027 2.34315,3.53513 2.34315,5.65686 l 0,0 c 0,4.41827 -3.58173,8 -8,8 l 0,0 c -4.41828,0 -8,-3.58173 -8,-8 z"
       id="path35"
       inkscape:connector-curvature="0"
       style="fill:#000000;fill-rule:evenodd" />
    <path
       d="m 109.1063,424.3701 0,0 c 0,-4.41827 3.58172,-8 8,-8 l 0,0 c 2.12173,0 4.15656,0.84283 5.65685,2.34314 1.50029,1.50027 2.34315,3.53513 2.34315,5.65686 l 0,0 c 0,4.41827 -3.58173,8 -8,8 l 0,0 c -4.41828,0 -8,-3.58173 -8,-8 z"
       id="path37"
       inkscape:connector-curvature="0"
       style="fill-rule:evenodd;stroke:#000000;stroke-width:1;stroke-linecap:butt;stroke-linejoin:round" />
    <path
       d="m 108.8832,450.42126 0,0 c 0,-4.41827 3.58173,-8 8,-8 l 0,0 c 2.12173,0 4.15656,0.84287 5.65685,2.34314 1.50029,1.5003 2.34315,3.53513 2.34315,5.65686 l 0,0 c 0,4.41827 -3.58172,8 -8,8 l 0,0 c -4.41827,0 -8,-3.58173 -8,-8 z"
       id="path39"
       inkscape:connector-curvature="0"
       style="fill:#000000;fill-rule:evenodd" />
    <path
       d="m 108.8832,450.42126 0,0 c 0,-4.41827 3.58173,-8 8,-8 l 0,0 c 2.12173,0 4.15656,0.84287 5.65685,2.34314 1.50029,1.5003 2.34315,3.53513 2.34315,5.65686 l 0,0 c 0,4.41827 -3.58172,8 -8,8 l 0,0 c -4.41827,0 -8,-3.58173 -8,-8 z"
       id="path41"
       inkscape:connector-curvature="0"
       style="fill-rule:evenodd;stroke:#000000;stroke-width:1;stroke-linecap:butt;stroke-linejoin:round" />
    <path
       d="m 109.1063,476.47113 0,0 c 0,-4.41827 3.58172,-8 8,-8 l 0,0 c 2.12173,0 4.15656,0.84287 5.65685,2.34314 1.50029,1.5003 2.34315,3.53513 2.34315,5.65686 l 0,0 c 0,4.41827 -3.58173,8 -8,8 l 0,0 c -4.41828,0 -8,-3.58173 -8,-8 z"
       id="path43"
       inkscape:connector-curvature="0"
       style="fill:#000000;fill-rule:evenodd" />
    <path
       d="m 109.1063,476.47113 0,0 c 0,-4.41827 3.58172,-8 8,-8 l 0,0 c 2.12173,0 4.15656,0.84287 5.65685,2.34314 1.50029,1.5003 2.34315,3.53513 2.34315,5.65686 l 0,0 c 0,4.41827 -3.58173,8 -8,8 l 0,0 c -4.41828,0 -8,-3.58173 -8,-8 z"
       id="path45"
       inkscape:connector-curvature="0"
       style="fill-rule:evenodd;stroke:#000000;stroke-width:1;stroke-linecap:butt;stroke-linejoin:round" />
    <path
       d="m 373.12714,66.527916 0,0 c 0,-4.743076 3.84503,-8.5881 8.5881,-8.5881 l 34.35135,0 0,0 c 2.27771,0 4.46213,0.904816 6.07273,2.515396 1.61056,1.61058 2.51538,3.794994 2.51538,6.072704 l 0,285.563964 c 0,4.74307 -3.845,8.58807 -8.58811,8.58807 l -34.35135,0 c -4.74307,0 -8.5881,-3.845 -8.5881,-8.58807 z"
       id="path47"
       inkscape:connector-curvature="0"
       style="fill:#ffffff;fill-rule:evenodd" />
    <path
       d="m 373.12714,66.527916 0,0 c 0,-4.743076 3.84503,-8.5881 8.5881,-8.5881 l 34.35135,0 0,0 c 2.27771,0 4.46213,0.904816 6.07273,2.515396 1.61056,1.61058 2.51538,3.794994 2.51538,6.072704 l 0,285.563964 c 0,4.74307 -3.845,8.58807 -8.58811,8.58807 l -34.35135,0 c -4.74307,0 -8.5881,-3.845 -8.5881,-8.58807 z"
       id="path49"
       inkscape:connector-curvature="0"
       style="fill-rule:evenodd;stroke:#000000;stroke-width:2;stroke-linecap:butt;stroke-linejoin:round" />
    <path
       d="m 379.17313,97.39295 0,0 c 0,-10.671707 8.65112,-19.322838 19.32285,-19.322838 l 0,0 c 5.12472,0 10.03955,2.035797 13.6633,5.659531 3.62371,3.623733 5.65951,8.538574 5.65951,13.663307 l 0,0 c 0,10.67171 -8.65112,19.32284 -19.32281,19.32284 l 0,0 c -10.67173,0 -19.32285,-8.65113 -19.32285,-19.32284 z"
       id="path51"
       inkscape:connector-curvature="0"
       style="fill:#d9d9d9;fill-rule:evenodd" />
    <path
       d="m 379.17313,97.39295 0,0 c 0,-10.671707 8.65112,-19.322838 19.32285,-19.322838 l 0,0 c 5.12472,0 10.03955,2.035797 13.6633,5.659531 3.62371,3.623733 5.65951,8.538574 5.65951,13.663307 l 0,0 c 0,10.67171 -8.65112,19.32284 -19.32281,19.32284 l 0,0 c -10.67173,0 -19.32285,-8.65113 -19.32285,-19.32284 z"
       id="path53"
       inkscape:connector-curvature="0"
       style="fill-rule:evenodd;stroke:#000000;stroke-width:2;stroke-linecap:butt;stroke-linejoin:round" />
    <path
       d="m 379.17313,146.50975 0,0 c 0,-10.67171 8.65112,-19.32284 19.32285,-19.32284 l 0,0 c 5.12472,0 10.03955,2.03579 13.6633,5.65952 3.62371,3.62374 5.65951,8.53858 5.65951,13.66332 l 0,0 c 0,10.67171 -8.65112,19.32283 -19.32281,19.32283 l 0,0 c -10.67173,0 -19.32285,-8.65112 -19.32285,-19.32283 z"
       id="path55"
       inkscape:connector-curvature="0"
       style="fill:#d9d9d9;fill-rule:evenodd" />
    <path
       d="m 379.17313,146.50975 0,0 c 0,-10.67171 8.65112,-19.32284 19.32285,-19.32284 l 0,0 c 5.12472,0 10.03955,2.03579 13.6633,5.65952 3.62371,3.62374 5.65951,8.53858 5.65951,13.66332 l 0,0 c 0,10.67171 -8.65112,19.32283 -19.32281,19.32283 l 0,0 c -10.67173,0 -19.32285,-8.65112 -19.32285,-19.32283 z"
       id="path57"
       inkscape:connector-curvature="0"
       style="fill-rule:evenodd;stroke:#000000;stroke-width:2;stroke-linecap:butt;stroke-linejoin:round" />
    <path
       d="m 379.17313,328.07 0,0 c 0,-10.67172 8.65112,-19.32284 19.32285,-19.32284 l 0,0 c 5.12472,0 10.03955,2.03579 13.6633,5.65951 3.62371,3.62375 5.65951,8.53857 5.65951,13.66333 l 0,0 c 0,10.67169 -8.65112,19.32282 -19.32281,19.32282 l 0,0 c -10.67173,0 -19.32285,-8.65113 -19.32285,-19.32282 z"
       id="path59"
       inkscape:connector-curvature="0"
       style="fill:#d9d9d9;fill-rule:evenodd" />
    <path
       d="m 379.17313,328.07 0,0 c 0,-10.67172 8.65112,-19.32284 19.32285,-19.32284 l 0,0 c 5.12472,0 10.03955,2.03579 13.6633,5.65951 3.62371,3.62375 5.65951,8.53857 5.65951,13.66333 l 0,0 c 0,10.67169 -8.65112,19.32282 -19.32281,19.32282 l 0,0 c -10.67173,0 -19.32285,-8.65113 -19.32285,-19.32282 z"
       id="path61"
       inkscape:connector-curvature="0"
       style="fill-rule:evenodd;stroke:#000000;stroke-width:2;stroke-linecap:butt;stroke-linejoin:round" />
    <path
       d="m 379.17313,194.79916 0,0 c 0,-10.67171 8.65112,-19.32283 19.32285,-19.32283 l 0,0 c 5.12472,0 10.03955,2.0358 13.6633,5.65953 3.62371,3.62373 5.65951,8.53857 5.65951,13.6633 l 0,0 c 0,10.67171 -8.65112,19.32285 -19.32281,19.32285 l 0,0 c -10.67173,0 -19.32285,-8.65114 -19.32285,-19.32285 z"
       id="path63"
       inkscape:connector-curvature="0"
       style="fill:#d9d9d9;fill-rule:evenodd" />
    <path
       d="m 379.17313,194.79916 0,0 c 0,-10.67171 8.65112,-19.32283 19.32285,-19.32283 l 0,0 c 5.12472,0 10.03955,2.0358 13.6633,5.65953 3.62371,3.62373 5.65951,8.53857 5.65951,13.6633 l 0,0 c 0,10.67171 -8.65112,19.32285 -19.32281,19.32285 l 0,0 c -10.67173,0 -19.32285,-8.65114 -19.32285,-19.32285 z"
       id="path65"
       inkscape:connector-curvature="0"
       style="fill-rule:evenodd;stroke:#000000;stroke-width:2;stroke-linecap:butt;stroke-linejoin:round" />
    <path
       d="m 391.44223,237.82616 0,0 c 0,-4.00081 3.24329,-7.2441 7.24408,-7.2441 l 0,0 c 1.92126,0 3.76382,0.76322 5.12234,2.12174 1.35856,1.35854 2.12177,3.2011 2.12177,5.12236 l 0,0 c 0,4.00079 -3.24329,7.24409 -7.24411,7.24409 l 0,0 c -4.00079,0 -7.24408,-3.2433 -7.24408,-7.24409 z"
       id="path67"
       inkscape:connector-curvature="0"
       style="fill:#000000;fill-rule:evenodd" />
    <path
       d="m 391.44223,237.82616 0,0 c 0,-4.00081 3.24329,-7.2441 7.24408,-7.2441 l 0,0 c 1.92126,0 3.76382,0.76322 5.12234,2.12174 1.35856,1.35854 2.12177,3.2011 2.12177,5.12236 l 0,0 c 0,4.00079 -3.24329,7.24409 -7.24411,7.24409 l 0,0 c -4.00079,0 -7.24408,-3.2433 -7.24408,-7.24409 z"
       id="path69"
       inkscape:connector-curvature="0"
       style="fill-rule:evenodd;stroke:#000000;stroke-width:1;stroke-linecap:butt;stroke-linejoin:round" />
    <path
       d="m 391.24014,261.42404 0,0 c 0,-4.00079 3.24329,-7.2441 7.24408,-7.2441 l 0,0 c 1.92126,0 3.76382,0.76322 5.12234,2.12175 1.35856,1.35853 2.12177,3.20109 2.12177,5.12235 l 0,0 c 0,4.00079 -3.24329,7.24408 -7.24411,7.24408 l 0,0 c -4.00079,0 -7.24408,-3.24329 -7.24408,-7.24408 z"
       id="path71"
       inkscape:connector-curvature="0"
       style="fill:#000000;fill-rule:evenodd" />
    <path
       d="m 391.24014,261.42404 0,0 c 0,-4.00079 3.24329,-7.2441 7.24408,-7.2441 l 0,0 c 1.92126,0 3.76382,0.76322 5.12234,2.12175 1.35856,1.35853 2.12177,3.20109 2.12177,5.12235 l 0,0 c 0,4.00079 -3.24329,7.24408 -7.24411,7.24408 l 0,0 c -4.00079,0 -7.24408,-3.24329 -7.24408,-7.24408 z"
       id="path73"
       inkscape:connector-curvature="0"
       style="fill-rule:evenodd;stroke:#000000;stroke-width:1;stroke-linecap:butt;stroke-linejoin:round" />
    <path
       d="m 391.44223,285.02072 0,0 c 0,-4.00079 3.24329,-7.24408 7.24408,-7.24408 l 0,0 c 1.92126,0 3.76382,0.76321 5.12234,2.12173 1.35856,1.35856 2.12177,3.20112 2.12177,5.12235 l 0,0 c 0,4.00082 -3.24329,7.24411 -7.24411,7.24411 l 0,0 c -4.00079,0 -7.24408,-3.24329 -7.24408,-7.24411 z"
       id="path75"
       inkscape:connector-curvature="0"
       style="fill:#000000;fill-rule:evenodd" />
    <path
       d="m 391.44223,285.02072 0,0 c 0,-4.00079 3.24329,-7.24408 7.24408,-7.24408 l 0,0 c 1.92126,0 3.76382,0.76321 5.12234,2.12173 1.35856,1.35856 2.12177,3.20112 2.12177,5.12235 l 0,0 c 0,4.00082 -3.24329,7.24411 -7.24411,7.24411 l 0,0 c -4.00079,0 -7.24408,-3.24329 -7.24408,-7.24411 z"
       id="path77"
       inkscape:connector-curvature="0"
       style="fill-rule:evenodd;stroke:#000000;stroke-width:1;stroke-linecap:butt;stroke-linejoin:round" />
    <path
       d="m 273.4226,173.56561 125.48032,0 0,72.8819 -125.48032,0 z"
       id="path79"
       inkscape:connector-curvature="0"
       style="fill:#000000;fill-opacity:0;fill-rule:evenodd" />
    <path
       d="m 330.00073,195.30531 0,0.85937 q -0.89063,0.0781 -1.5,0.5 -0.60938,0.42188 -1.07813,1.28125 -0.14062,0.28125 -1.46875,3.64063 l -9.96875,26.23437 -0.90625,0 -7.875,-20.5 -8.67187,20.5 -0.875,0 -10.45313,-25.95312 q -1.59375,-3.92188 -2.23437,-4.73438 -0.625,-0.82812 -2.125,-0.96875 l 0,-0.85937 13.78125,0 0,0.85937 q -1.65625,0.0469 -2.21875,0.51563 -0.54688,0.45312 -0.54688,1.125 0,0.89062 1.15625,3.78125 l 6.23438,15.42187 4.98437,-12.04687 -1.3125,-3.375 q -1.07812,-2.76563 -1.67187,-3.6875 -0.57813,-0.9375 -1.34375,-1.32813 -0.75,-0.40625 -2.23438,-0.40625 l 0,-0.85937 15.40625,0 0,0.85937 q -1.625,0.0312 -2.32812,0.26563 -0.48438,0.15625 -0.76563,0.54687 -0.28125,0.39063 -0.28125,0.875 0,0.54688 1.04688,3.3125 l 5.79687,15.04688 5.17188,-13.625 q 0.82812,-2.10938 1.01562,-2.875 0.1875,-0.78125 0.1875,-1.4375 0,-0.95313 -0.65625,-1.5 -0.65625,-0.5625 -2.51562,-0.60938 l 0,-0.85937 8.25,0 z"
       id="path81"
       inkscape:connector-curvature="0"
       style="fill:#000000;fill-rule:nonzero" />
    <path
       d="m 334.1726,225.97719 5.15625,-2.51563 0.51562,0 0,17.89063 q 0,1.78125 0.14063,2.21875 0.15625,0.4375 0.625,0.67187 0.46875,0.23438 1.90625,0.26563 l 0,0.57812 -7.96875,0 0,-0.57812 q 1.5,-0.0312 1.9375,-0.25 0.4375,-0.23438 0.60937,-0.60938 0.17188,-0.39062 0.17188,-2.29687 l 0,-11.4375 q 0,-2.3125 -0.15625,-2.96875 -0.10938,-0.5 -0.40625,-0.73438 -0.28125,-0.23437 -0.6875,-0.23437 -0.57813,0 -1.60938,0.48437 l -0.23437,-0.48437 z"
       id="path83"
       inkscape:connector-curvature="0"
       style="fill:#000000;fill-rule:nonzero" />
    <path
       d="m 366.6101,187.89906 0,5.73437 -0.5625,0 q -0.5,-1.98437 -1.10938,-2.84375 -0.60937,-0.875 -1.67187,-1.39062 -0.59375,-0.28125 -2.07813,-0.28125 l -1.57812,0 0,16.34375 q 0,1.625 0.17187,2.03125 0.1875,0.40625 0.70313,0.71875 0.53125,0.29687 1.4375,0.29687 l 0.70312,0 0,0.57813 -11.09375,0 0,-0.57813 0.70313,0 q 0.92187,0 1.48437,-0.32812 0.40625,-0.21875 0.64063,-0.75 0.17187,-0.375 0.17187,-1.96875 l 0,-16.34375 -1.53125,0 q -2.14062,0 -3.10937,0.90625 -1.35938,1.26562 -1.71875,3.60937 l -0.59375,0 0,-5.73437 19.03125,0 z"
       id="path85"
       inkscape:connector-curvature="0"
       style="fill:#000000;fill-rule:nonzero" />
    <path
       d="m 433.44095,183.24672 144.44095,0 0,52.12598 -144.44095,0 z"
       id="path87"
       inkscape:connector-curvature="0"
       style="fill:#000000;fill-opacity:0;fill-rule:evenodd" />
    <path
       d="m 452.08157,220.82721 0,-9.42188 -9.35938,0 0,-3.9375 9.35938,0 0,-9.34375 3.98437,0 0,9.34375 9.34375,0 0,3.9375 -9.34375,0 0,9.42188 -3.98437,0 z"
       id="path89"
       inkscape:connector-curvature="0"
       style="fill:#000000;fill-rule:nonzero" />
    <path
       d="m 505.61282,193.87408 -4.0625,14.14062 q 1.85937,-2.01562 3.09375,-2.6875 1.25,-0.67187 2.70312,-0.67187 2.8125,0 4.20313,2.03125 1.39059,2.03125 1.39059,4.67187 0,6.32813 -4.59372,11.29688 -4.07812,4.39062 -9.28125,4.39062 -3.85937,0 -8.17187,-2.28125 l 7.17187,-24.85937 q 0.51563,-1.76563 0.51563,-2.42188 0,-0.5625 -0.46875,-0.89062 -0.65625,-0.46875 -2,-0.39063 l 0.26562,-0.9375 7.82813,-1.39062 1.40625,0 z m -9,31.125 q 1.09375,0.70312 1.98437,0.70312 1.25,0 2.09375,-0.48437 1.32813,-0.79688 2.79688,-2.875 1.46875,-2.09375 2.45312,-5.04688 0.98438,-2.95312 0.98438,-5.89062 0,-1.65625 -0.75,-2.51563 -0.75,-0.875 -1.73438,-0.875 -1.64062,0 -2.85937,1.59375 -0.82813,1.03125 -1.78125,4.375 l -3.1875,11.01563 z"
       id="path91"
       inkscape:connector-curvature="0"
       style="fill:#000000;fill-rule:nonzero" />
    <path
       d="m 518.1909,225.28033 5.15625,-2.51563 0.51563,0 0,17.89063 q 0,1.78125 0.14062,2.21875 0.15625,0.4375 0.625,0.67187 0.46875,0.23438 1.90625,0.26563 l 0,0.57812 -7.96875,0 0,-0.57812 q 1.5,-0.0312 1.9375,-0.25 0.4375,-0.23438 0.60938,-0.60938 0.17187,-0.39062 0.17187,-2.29687 l 0,-11.4375 q 0,-2.3125 -0.15625,-2.96875 -0.10937,-0.5 -0.40625,-0.73438 -0.28125,-0.23437 -0.6875,-0.23437 -0.57812,0 -1.60937,0.48437 l -0.23438,-0.48437 z"
       id="path93"
       inkscape:connector-curvature="0"
       style="fill:#000000;fill-rule:nonzero" />
    <path
       d="m 275.7454,459.11023 270.3622,0 0,324.25195 -270.3622,0 z"
       id="path95"
       inkscape:connector-curvature="0"
       style="fill:#fce5cd;fill-rule:evenodd" />
    <path
       d="m 275.7454,459.11023 270.3622,0 0,324.25195 -270.3622,0 z"
       id="path97"
       inkscape:connector-curvature="0"
       style="fill-rule:evenodd;stroke:#990000;stroke-width:2;stroke-linecap:butt;stroke-linejoin:round;stroke-dasharray:16, 6" />
    <path
       d="m 315.61664,478.45444 0,0 c 0,-4.7431 3.84503,-8.5881 8.5881,-8.5881 l 34.35135,0 0,0 c 2.27771,0 4.46213,0.90481 6.07273,2.51538 1.61056,1.61059 2.51538,3.79501 2.51538,6.07272 l 0,285.56393 c 0,4.7431 -3.845,8.58814 -8.58811,8.58814 l -34.35135,0 c -4.74307,0 -8.5881,-3.84504 -8.5881,-8.58814 z"
       id="path99"
       inkscape:connector-curvature="0"
       style="fill:#ffffff;fill-rule:evenodd" />
    <path
       d="m 315.61664,478.45444 0,0 c 0,-4.7431 3.84503,-8.5881 8.5881,-8.5881 l 34.35135,0 0,0 c 2.27771,0 4.46213,0.90481 6.07273,2.51538 1.61056,1.61059 2.51538,3.79501 2.51538,6.07272 l 0,285.56393 c 0,4.7431 -3.845,8.58814 -8.58811,8.58814 l -34.35135,0 c -4.74307,0 -8.5881,-3.84504 -8.5881,-8.58814 z"
       id="path101"
       inkscape:connector-curvature="0"
       style="fill-rule:evenodd;stroke:#000000;stroke-width:2;stroke-linecap:butt;stroke-linejoin:round" />
    <path
       d="m 321.66263,509.31946 0,0 c 0,-10.67169 8.65112,-19.32284 19.32284,-19.32284 l 0,0 c 5.12473,0 10.03956,2.03579 13.6633,5.65954 3.62372,3.62372 5.65952,8.53857 5.65952,13.6633 l 0,0 c 0,10.67169 -8.65112,19.32282 -19.32281,19.32282 l 0,0 c -10.67173,0 -19.32285,-8.65113 -19.32285,-19.32282 z"
       id="path103"
       inkscape:connector-curvature="0"
       style="fill:#d9d9d9;fill-rule:evenodd" />
    <path
       d="m 321.66263,509.31946 0,0 c 0,-10.67169 8.65112,-19.32284 19.32284,-19.32284 l 0,0 c 5.12473,0 10.03956,2.03579 13.6633,5.65954 3.62372,3.62372 5.65952,8.53857 5.65952,13.6633 l 0,0 c 0,10.67169 -8.65112,19.32282 -19.32281,19.32282 l 0,0 c -10.67173,0 -19.32285,-8.65113 -19.32285,-19.32282 z"
       id="path105"
       inkscape:connector-curvature="0"
       style="fill-rule:evenodd;stroke:#000000;stroke-width:2;stroke-linecap:butt;stroke-linejoin:round" />
    <path
       d="m 321.66263,558.4363 0,0 c 0,-10.67175 8.65112,-19.32288 19.32284,-19.32288 l 0,0 c 5.12473,0 10.03956,2.03583 13.6633,5.65955 3.62372,3.62372 5.65952,8.53857 5.65952,13.66333 l 0,0 c 0,10.67169 -8.65112,19.32281 -19.32281,19.32281 l 0,0 c -10.67173,0 -19.32285,-8.65112 -19.32285,-19.32281 z"
       id="path107"
       inkscape:connector-curvature="0"
       style="fill:#d9d9d9;fill-rule:evenodd" />
    <path
       d="m 321.66263,558.4363 0,0 c 0,-10.67175 8.65112,-19.32288 19.32284,-19.32288 l 0,0 c 5.12473,0 10.03956,2.03583 13.6633,5.65955 3.62372,3.62372 5.65952,8.53857 5.65952,13.66333 l 0,0 c 0,10.67169 -8.65112,19.32281 -19.32281,19.32281 l 0,0 c -10.67173,0 -19.32285,-8.65112 -19.32285,-19.32281 z"
       id="path109"
       inkscape:connector-curvature="0"
       style="fill-rule:evenodd;stroke:#000000;stroke-width:2;stroke-linecap:butt;stroke-linejoin:round" />
    <path
       d="m 321.66263,739.9965 0,0 c 0,-10.67175 8.65112,-19.32288 19.32284,-19.32288 l 0,0 c 5.12473,0 10.03956,2.03583 13.6633,5.65955 3.62372,3.62372 5.65952,8.53857 5.65952,13.66333 l 0,0 c 0,10.67169 -8.65112,19.32281 -19.32281,19.32281 l 0,0 c -10.67173,0 -19.32285,-8.65112 -19.32285,-19.32281 z"
       id="path111"
       inkscape:connector-curvature="0"
       style="fill:#d9d9d9;fill-rule:evenodd" />
    <path
       d="m 321.66263,739.9965 0,0 c 0,-10.67175 8.65112,-19.32288 19.32284,-19.32288 l 0,0 c 5.12473,0 10.03956,2.03583 13.6633,5.65955 3.62372,3.62372 5.65952,8.53857 5.65952,13.66333 l 0,0 c 0,10.67169 -8.65112,19.32281 -19.32281,19.32281 l 0,0 c -10.67173,0 -19.32285,-8.65112 -19.32285,-19.32281 z"
       id="path113"
       inkscape:connector-curvature="0"
       style="fill-rule:evenodd;stroke:#000000;stroke-width:2;stroke-linecap:butt;stroke-linejoin:round" />
    <path
       d="m 321.66263,606.7257 0,0 c 0,-10.67175 8.65112,-19.32288 19.32284,-19.32288 l 0,0 c 5.12473,0 10.03956,2.03583 13.6633,5.65955 3.62372,3.62372 5.65952,8.53857 5.65952,13.66333 l 0,0 c 0,10.67169 -8.65112,19.32281 -19.32281,19.32281 l 0,0 c -10.67173,0 -19.32285,-8.65112 -19.32285,-19.32281 z"
       id="path115"
       inkscape:connector-curvature="0"
       style="fill:#d9d9d9;fill-rule:evenodd" />
    <path
       d="m 321.66263,606.7257 0,0 c 0,-10.67175 8.65112,-19.32288 19.32284,-19.32288 l 0,0 c 5.12473,0 10.03956,2.03583 13.6633,5.65955 3.62372,3.62372 5.65952,8.53857 5.65952,13.66333 l 0,0 c 0,10.67169 -8.65112,19.32281 -19.32281,19.32281 l 0,0 c -10.67173,0 -19.32285,-8.65112 -19.32285,-19.32281 z"
       id="path117"
       inkscape:connector-curvature="0"
       style="fill-rule:evenodd;stroke:#000000;stroke-width:2;stroke-linecap:butt;stroke-linejoin:round" />
    <path
       d="m 333.93173,649.7527 0,0 c 0,-4.00085 3.24329,-7.24414 7.24408,-7.24414 l 0,0 c 1.92126,0 3.76382,0.76324 5.12234,2.12176 1.35856,1.35852 2.12177,3.20112 2.12177,5.12238 l 0,0 c 0,4.00079 -3.24329,7.24408 -7.24411,7.24408 l 0,0 c -4.00079,0 -7.24408,-3.24329 -7.24408,-7.24408 z"
       id="path119"
       inkscape:connector-curvature="0"
       style="fill:#000000;fill-rule:evenodd" />
    <path
       d="m 333.93173,649.7527 0,0 c 0,-4.00085 3.24329,-7.24414 7.24408,-7.24414 l 0,0 c 1.92126,0 3.76382,0.76324 5.12234,2.12176 1.35856,1.35852 2.12177,3.20112 2.12177,5.12238 l 0,0 c 0,4.00079 -3.24329,7.24408 -7.24411,7.24408 l 0,0 c -4.00079,0 -7.24408,-3.24329 -7.24408,-7.24408 z"
       id="path121"
       inkscape:connector-curvature="0"
       style="fill-rule:evenodd;stroke:#000000;stroke-width:1;stroke-linecap:butt;stroke-linejoin:round" />
    <path
       d="m 333.72964,673.3505 0,0 c 0,-4.00079 3.24329,-7.24408 7.24408,-7.24408 l 0,0 c 1.92126,0 3.76382,0.76325 5.12234,2.12177 1.35856,1.35852 2.12177,3.20111 2.12177,5.12231 l 0,0 c 0,4.00085 -3.24329,7.24414 -7.24411,7.24414 l 0,0 c -4.00079,0 -7.24408,-3.24329 -7.24408,-7.24414 z"
       id="path123"
       inkscape:connector-curvature="0"
       style="fill:#000000;fill-rule:evenodd" />
    <path
       d="m 333.72964,673.3505 0,0 c 0,-4.00079 3.24329,-7.24408 7.24408,-7.24408 l 0,0 c 1.92126,0 3.76382,0.76325 5.12234,2.12177 1.35856,1.35852 2.12177,3.20111 2.12177,5.12231 l 0,0 c 0,4.00085 -3.24329,7.24414 -7.24411,7.24414 l 0,0 c -4.00079,0 -7.24408,-3.24329 -7.24408,-7.24414 z"
       id="path125"
       inkscape:connector-curvature="0"
       style="fill-rule:evenodd;stroke:#000000;stroke-width:1;stroke-linecap:butt;stroke-linejoin:round" />
    <path
       d="m 333.93173,696.94727 0,0 c 0,-4.00079 3.24329,-7.24414 7.24408,-7.24414 l 0,0 c 1.92126,0 3.76382,0.76324 5.12234,2.12176 1.35856,1.35852 2.12177,3.20112 2.12177,5.12238 l 0,0 c 0,4.00079 -3.24329,7.24408 -7.24411,7.24408 l 0,0 c -4.00079,0 -7.24408,-3.24329 -7.24408,-7.24408 z"
       id="path127"
       inkscape:connector-curvature="0"
       style="fill:#000000;fill-rule:evenodd" />
    <path
       d="m 333.93173,696.94727 0,0 c 0,-4.00079 3.24329,-7.24414 7.24408,-7.24414 l 0,0 c 1.92126,0 3.76382,0.76324 5.12234,2.12176 1.35856,1.35852 2.12177,3.20112 2.12177,5.12238 l 0,0 c 0,4.00079 -3.24329,7.24408 -7.24411,7.24408 l 0,0 c -4.00079,0 -7.24408,-3.24329 -7.24408,-7.24408 z"
       id="path129"
       inkscape:connector-curvature="0"
       style="fill-rule:evenodd;stroke:#000000;stroke-width:1;stroke-linecap:butt;stroke-linejoin:round" />
    <path
       d="m 466.08252,478.45444 0,0 c 0,-4.7431 3.84503,-8.5881 8.5881,-8.5881 l 34.35135,0 0,0 c 2.27771,0 4.46216,0.90481 6.0727,2.51538 1.61059,1.61059 2.51544,3.79501 2.51544,6.07272 l 0,285.56393 c 0,4.7431 -3.84503,8.58814 -8.58814,8.58814 l -34.35135,0 c -4.74307,0 -8.5881,-3.84504 -8.5881,-8.58814 z"
       id="path131"
       inkscape:connector-curvature="0"
       style="fill:#d9ead3;fill-rule:evenodd" />
    <path
       d="m 466.08252,478.45444 0,0 c 0,-4.7431 3.84503,-8.5881 8.5881,-8.5881 l 34.35135,0 0,0 c 2.27771,0 4.46216,0.90481 6.0727,2.51538 1.61059,1.61059 2.51544,3.79501 2.51544,6.07272 l 0,285.56393 c 0,4.7431 -3.84503,8.58814 -8.58814,8.58814 l -34.35135,0 c -4.74307,0 -8.5881,-3.84504 -8.5881,-8.58814 z"
       id="path133"
       inkscape:connector-curvature="0"
       style="fill-rule:evenodd;stroke:#000000;stroke-width:2;stroke-linecap:butt;stroke-linejoin:round" />
    <path
       d="m 472.1285,509.31946 0,0 c 0,-10.67169 8.65112,-19.32284 19.32284,-19.32284 l 0,0 c 5.12473,0 10.03956,2.03579 13.6633,5.65954 3.62372,3.62372 5.65952,8.53857 5.65952,13.6633 l 0,0 c 0,10.67169 -8.65112,19.32282 -19.32281,19.32282 l 0,0 c -10.67173,0 -19.32285,-8.65113 -19.32285,-19.32282 z"
       id="path135"
       inkscape:connector-curvature="0"
       style="fill:#d9d9d9;fill-rule:evenodd" />
    <path
       d="m 472.1285,509.31946 0,0 c 0,-10.67169 8.65112,-19.32284 19.32284,-19.32284 l 0,0 c 5.12473,0 10.03956,2.03579 13.6633,5.65954 3.62372,3.62372 5.65952,8.53857 5.65952,13.6633 l 0,0 c 0,10.67169 -8.65112,19.32282 -19.32281,19.32282 l 0,0 c -10.67173,0 -19.32285,-8.65113 -19.32285,-19.32282 z"
       id="path137"
       inkscape:connector-curvature="0"
       style="fill-rule:evenodd;stroke:#000000;stroke-width:2;stroke-linecap:butt;stroke-linejoin:round" />
    <path
       d="m 472.1285,558.4363 0,0 c 0,-10.67175 8.65112,-19.32288 19.32284,-19.32288 l 0,0 c 5.12473,0 10.03956,2.03583 13.6633,5.65955 3.62372,3.62372 5.65952,8.53857 5.65952,13.66333 l 0,0 c 0,10.67169 -8.65112,19.32281 -19.32281,19.32281 l 0,0 c -10.67173,0 -19.32285,-8.65112 -19.32285,-19.32281 z"
       id="path139"
       inkscape:connector-curvature="0"
       style="fill:#d9d9d9;fill-rule:evenodd" />
    <path
       d="m 472.1285,558.4363 0,0 c 0,-10.67175 8.65112,-19.32288 19.32284,-19.32288 l 0,0 c 5.12473,0 10.03956,2.03583 13.6633,5.65955 3.62372,3.62372 5.65952,8.53857 5.65952,13.66333 l 0,0 c 0,10.67169 -8.65112,19.32281 -19.32281,19.32281 l 0,0 c -10.67173,0 -19.32285,-8.65112 -19.32285,-19.32281 z"
       id="path141"
       inkscape:connector-curvature="0"
       style="fill-rule:evenodd;stroke:#000000;stroke-width:2;stroke-linecap:butt;stroke-linejoin:round" />
    <path
       d="m 472.1285,739.9965 0,0 c 0,-10.67175 8.65112,-19.32288 19.32284,-19.32288 l 0,0 c 5.12473,0 10.03956,2.03583 13.6633,5.65955 3.62372,3.62372 5.65952,8.53857 5.65952,13.66333 l 0,0 c 0,10.67169 -8.65112,19.32281 -19.32281,19.32281 l 0,0 c -10.67173,0 -19.32285,-8.65112 -19.32285,-19.32281 z"
       id="path143"
       inkscape:connector-curvature="0"
       style="fill:#d9d9d9;fill-rule:evenodd" />
    <path
       d="m 472.1285,739.9965 0,0 c 0,-10.67175 8.65112,-19.32288 19.32284,-19.32288 l 0,0 c 5.12473,0 10.03956,2.03583 13.6633,5.65955 3.62372,3.62372 5.65952,8.53857 5.65952,13.66333 l 0,0 c 0,10.67169 -8.65112,19.32281 -19.32281,19.32281 l 0,0 c -10.67173,0 -19.32285,-8.65112 -19.32285,-19.32281 z"
       id="path145"
       inkscape:connector-curvature="0"
       style="fill-rule:evenodd;stroke:#000000;stroke-width:2;stroke-linecap:butt;stroke-linejoin:round" />
    <path
       d="m 472.1285,606.7257 0,0 c 0,-10.67175 8.65112,-19.32288 19.32284,-19.32288 l 0,0 c 5.12473,0 10.03956,2.03583 13.6633,5.65955 3.62372,3.62372 5.65952,8.53857 5.65952,13.66333 l 0,0 c 0,10.67169 -8.65112,19.32281 -19.32281,19.32281 l 0,0 c -10.67173,0 -19.32285,-8.65112 -19.32285,-19.32281 z"
       id="path147"
       inkscape:connector-curvature="0"
       style="fill:#d9d9d9;fill-rule:evenodd" />
    <path
       d="m 472.1285,606.7257 0,0 c 0,-10.67175 8.65112,-19.32288 19.32284,-19.32288 l 0,0 c 5.12473,0 10.03956,2.03583 13.6633,5.65955 3.62372,3.62372 5.65952,8.53857 5.65952,13.66333 l 0,0 c 0,10.67169 -8.65112,19.32281 -19.32281,19.32281 l 0,0 c -10.67173,0 -19.32285,-8.65112 -19.32285,-19.32281 z"
       id="path149"
       inkscape:connector-curvature="0"
       style="fill-rule:evenodd;stroke:#000000;stroke-width:2;stroke-linecap:butt;stroke-linejoin:round" />
    <path
       d="m 484.3976,649.7527 0,0 c 0,-4.00085 3.24329,-7.24414 7.24408,-7.24414 l 0,0 c 1.92126,0 3.76382,0.76324 5.12234,2.12176 1.35856,1.35852 2.12177,3.20112 2.12177,5.12238 l 0,0 c 0,4.00079 -3.24332,7.24408 -7.24411,7.24408 l 0,0 c -4.00079,0 -7.24408,-3.24329 -7.24408,-7.24408 z"
       id="path151"
       inkscape:connector-curvature="0"
       style="fill:#000000;fill-rule:evenodd" />
    <path
       d="m 484.3976,649.7527 0,0 c 0,-4.00085 3.24329,-7.24414 7.24408,-7.24414 l 0,0 c 1.92126,0 3.76382,0.76324 5.12234,2.12176 1.35856,1.35852 2.12177,3.20112 2.12177,5.12238 l 0,0 c 0,4.00079 -3.24332,7.24408 -7.24411,7.24408 l 0,0 c -4.00079,0 -7.24408,-3.24329 -7.24408,-7.24408 z"
       id="path153"
       inkscape:connector-curvature="0"
       style="fill-rule:evenodd;stroke:#000000;stroke-width:1;stroke-linecap:butt;stroke-linejoin:round" />
    <path
       d="m 484.19553,673.3505 0,0 c 0,-4.00079 3.24329,-7.24408 7.24408,-7.24408 l 0,0 c 1.92126,0 3.76382,0.76325 5.12234,2.12177 1.35856,1.35852 2.12177,3.20111 2.12177,5.12231 l 0,0 c 0,4.00085 -3.24332,7.24414 -7.24411,7.24414 l 0,0 c -4.00079,0 -7.24408,-3.24329 -7.24408,-7.24414 z"
       id="path155"
       inkscape:connector-curvature="0"
       style="fill:#000000;fill-rule:evenodd" />
    <path
       d="m 484.19553,673.3505 0,0 c 0,-4.00079 3.24329,-7.24408 7.24408,-7.24408 l 0,0 c 1.92126,0 3.76382,0.76325 5.12234,2.12177 1.35856,1.35852 2.12177,3.20111 2.12177,5.12231 l 0,0 c 0,4.00085 -3.24332,7.24414 -7.24411,7.24414 l 0,0 c -4.00079,0 -7.24408,-3.24329 -7.24408,-7.24414 z"
       id="path157"
       inkscape:connector-curvature="0"
       style="fill-rule:evenodd;stroke:#000000;stroke-width:1;stroke-linecap:butt;stroke-linejoin:round" />
    <path
       d="m 484.3976,696.94727 0,0 c 0,-4.00079 3.24329,-7.24414 7.24408,-7.24414 l 0,0 c 1.92126,0 3.76382,0.76324 5.12234,2.12176 1.35856,1.35852 2.12177,3.20112 2.12177,5.12238 l 0,0 c 0,4.00079 -3.24332,7.24408 -7.24411,7.24408 l 0,0 c -4.00079,0 -7.24408,-3.24329 -7.24408,-7.24408 z"
       id="path159"
       inkscape:connector-curvature="0"
       style="fill:#000000;fill-rule:evenodd" />
    <path
       d="m 484.3976,696.94727 0,0 c 0,-4.00079 3.24329,-7.24414 7.24408,-7.24414 l 0,0 c 1.92126,0 3.76382,0.76324 5.12234,2.12176 1.35856,1.35852 2.12177,3.20112 2.12177,5.12238 l 0,0 c 0,4.00079 -3.24332,7.24408 -7.24411,7.24408 l 0,0 c -4.00079,0 -7.24408,-3.24329 -7.24408,-7.24408 z"
       id="path161"
       inkscape:connector-curvature="0"
       style="fill-rule:evenodd;stroke:#000000;stroke-width:1;stroke-linecap:butt;stroke-linejoin:round" />
    <path
       d="m 363.6587,573.7874 97.00787,0 0,92.22046 -97.00787,0 z"
       id="path163"
       inkscape:connector-curvature="0"
       style="fill:#000000;fill-opacity:0;fill-rule:evenodd" />
    <path
       d="m 417.8345,621.7295 q -1.34375,1.32813 -3.67188,1.32813 -2.32812,0 -3.67187,-1.32813 -1.32813,-1.34375 -1.32813,-3.67187 0,-2.32813 1.32813,-3.67188 1.34375,-1.32812 3.67187,-1.32812 2.32813,0 3.67188,1.32812 1.32812,1.34375 1.32812,3.67188 0,2.32812 -1.32812,3.67187 z m -3.67188,12.70313 q 6.67188,0 11.70313,-5.04688 4.67187,-4.65625 4.67187,-11.32812 0,-6.67188 -4.67187,-11.32813 -5.03125,-5.04687 -11.70313,-5.04687 -6.67187,0 -11.70312,5.04687 -4.67188,4.65625 -4.67188,11.32813 0,6.67187 4.67188,11.32812 5.03125,5.04688 11.70312,5.04688 z m 16.79688,-0.70313 q -7.34375,7.32813 -16.79688,7.32813 -9.45312,0 -16.42187,-6.95313 -6.57813,-6.59375 -6.57813,-16.04687 0,-9.45313 6.20313,-15.67188 7.34375,-7.32812 16.79687,-7.32812 9.45313,0 16.42188,6.95312 6.57812,6.59375 6.57812,16.04688 0,9.45312 -6.20312,15.67187 z"
       id="path165"
       inkscape:connector-curvature="0"
       style="fill:#000000;fill-rule:nonzero" />
    <path
       d="m 145.76903,392.89764 253.13387,0 0,-32.22049"
       id="path167"
       inkscape:connector-curvature="0"
       style="fill:#000000;fill-opacity:0;fill-rule:evenodd" />
    <path
       d="m 157.13902,392.89764 241.76387,0 0,-14.22049"
       id="path169"
       inkscape:connector-curvature="0"
       style="fill-rule:evenodd;stroke:#999999;stroke-width:3;stroke-linecap:butt;stroke-linejoin:round" />
    <path
       d="m 157.13902,397.83264 -9.87,0 0,-9.87 9.87,0 0,9.87 z"
       id="path171"
       inkscape:connector-curvature="0"
       style="fill-rule:nonzero;stroke:#999999;stroke-width:3;stroke-linecap:butt" />
    <path
       d="m 403.8581,378.67715 -4.9552,-13.61429 -4.9552,13.61429 z"
       id="path173"
       inkscape:connector-curvature="0"
       style="fill:#999999;fill-rule:evenodd;stroke:#999999;stroke-width:3;stroke-linecap:butt" />
    <path
       d="m 145.76903,392.89764 195.62206,0 0,76.97638"
       id="path175"
       inkscape:connector-curvature="0"
       style="fill:#000000;fill-opacity:0;fill-rule:evenodd" />
    <path
       d="m 157.13902,392.89764 184.25206,0 0,58.97638"
       id="path177"
       inkscape:connector-curvature="0"
       style="fill-rule:evenodd;stroke:#999999;stroke-width:3;stroke-linecap:butt;stroke-linejoin:round" />
    <path
       d="m 157.13902,397.83264 -9.87,0 0,-9.87 9.87,0 0,9.87 z"
       id="path179"
       inkscape:connector-curvature="0"
       style="fill-rule:nonzero;stroke:#999999;stroke-width:3;stroke-linecap:butt" />
    <path
       d="m 336.43588,451.87402 4.9552,13.61429 4.9552,-13.61429 z"
       id="path181"
       inkscape:connector-curvature="0"
       style="fill:#999999;fill-rule:evenodd;stroke:#999999;stroke-width:3;stroke-linecap:butt" />
    <path
       d="m 543.7848,210.6483 24.99988,0 0,210.67244 -76.93689,0 0,48.54016"
       id="path183"
       inkscape:connector-curvature="0"
       style="fill:#000000;fill-opacity:0;fill-rule:evenodd" />
    <path
       d="m 555.1548,210.6483 13.62988,0 0,210.67244 -76.93689,0 0,30.54016"
       id="path185"
       inkscape:connector-curvature="0"
       style="fill-rule:evenodd;stroke:#999999;stroke-width:3;stroke-linecap:butt;stroke-linejoin:round" />
    <path
       d="m 555.1548,215.5833 -9.87,0 0,-9.87001 9.87,0 0,9.87001 z"
       id="path187"
       inkscape:connector-curvature="0"
       style="fill-rule:nonzero;stroke:#999999;stroke-width:3;stroke-linecap:butt" />
    <path
       d="m 486.89258,451.8609 4.9552,13.61429 4.9552,-13.61429 z"
       id="path189"
       inkscape:connector-curvature="0"
       style="fill:#999999;fill-rule:evenodd;stroke:#999999;stroke-width:3;stroke-linecap:butt" />
    <path
       d="m 24.194225,347.3937 56.881893,0 0,72.8819 -56.881893,0 z"
       id="path191"
       inkscape:connector-curvature="0"
       style="fill:#000000;fill-opacity:0;fill-rule:evenodd" />
    <path
       d="m 33.83485,379.4459 10.09375,0 0,0.85937 q -0.953125,0 -1.34375,0.32813 -0.390625,0.32812 -0.390625,0.875 0,0.5625 0.828125,1.73437 0.25,0.375 0.765625,1.17188 l 1.53125,2.4375 1.75,-2.4375 q 1.6875,-2.32813 1.6875,-2.9375 0,-0.48438 -0.40625,-0.82813 -0.390625,-0.34375 -1.28125,-0.34375 l 0,-0.85937 7.265625,0 0,0.85937 q -1.140625,0.0781 -1.984375,0.64063 -1.15625,0.79687 -3.140625,3.46875 l -2.9375,3.90625 5.34375,7.6875 q 1.96875,2.84375 2.8125,3.42187 0.84375,0.5625 2.1875,0.64063 l 0,0.84375 -10.125,0 0,-0.84375 q 1.046875,0 1.640625,-0.46875 0.4375,-0.32813 0.4375,-0.875 0,-0.53125 -1.5,-2.71875 l -3.140625,-4.59375 -3.4375,4.59375 q -1.59375,2.14062 -1.59375,2.53125 0,0.5625 0.515625,1.03125 0.53125,0.45312 1.59375,0.5 l 0,0.84375 -7.015625,0 0,-0.84375 q 0.84375,-0.125 1.484375,-0.59375 0.890625,-0.67188 3,-3.46875 l 4.5,-5.96875 -4.078125,-5.90625 q -1.734375,-2.53125 -2.6875,-3.17188 -0.953125,-0.65625 -2.375,-0.65625 l 0,-0.85937 z"
       id="path193"
       inkscape:connector-curvature="0"
       style="fill:#000000;fill-rule:nonzero" />
    <path
       d="m 61.83485,396.6959 q 0.65625,0 1.109375,0.46875 0.46875,0.45312 0.46875,1.10937 0,0.65625 -0.46875,1.125 -0.453125,0.46875 -1.109375,0.46875 -0.65625,0 -1.125,-0.46875 -0.46875,-0.46875 -0.46875,-1.125 0,-0.65625 0.453125,-1.10937 0.46875,-0.46875 1.140625,-0.46875 z m 1.296875,7.48437 0,11.5 q 0,1.34375 0.1875,1.79688 0.203125,0.4375 0.578125,0.65625 0.390629,0.21875 1.406254,0.21875 l 0,0.5625 -6.953129,0 0,-0.5625 q 1.046875,0 1.40625,-0.20313 0.359375,-0.20312 0.5625,-0.67187 0.21875,-0.46875 0.21875,-1.79688 l 0,-5.51562 q 0,-2.32813 -0.140625,-3.01563 -0.109375,-0.5 -0.34375,-0.6875 -0.234375,-0.20312 -0.640625,-0.20312 -0.4375,0 -1.0625,0.23437 l -0.21875,-0.5625 4.3125,-1.75 0.6875,0 z"
       id="path195"
       inkscape:connector-curvature="0"
       style="fill:#000000;fill-rule:nonzero" />
    <path
       d="m 577.8819,302.7638 75.77954,0 0,60.09448 -75.77954,0 z"
       id="path197"
       inkscape:connector-curvature="0"
       style="fill:#000000;fill-opacity:0;fill-rule:evenodd" />
    <path
       d="m 587.5225,328.42227 10.09375,0 0,0.85938 q -0.95312,0 -1.34375,0.32812 -0.39062,0.32813 -0.39062,0.875 0,0.5625 0.82812,1.73438 0.25,0.375 0.76563,1.17187 l 1.53125,2.4375 1.75,-2.4375 q 1.6875,-2.32812 1.6875,-2.9375 0,-0.48437 -0.40625,-0.82812 -0.39063,-0.34375 -1.28125,-0.34375 l 0,-0.85938 7.26562,0 0,0.85938 q -1.14062,0.0781 -1.98437,0.64062 -1.15625,0.79688 -3.14063,3.46875 l -2.9375,3.90625 5.34375,7.6875 q 1.96875,2.84375 2.8125,3.42188 0.84375,0.5625 2.1875,0.64062 l 0,0.84375 -10.125,0 0,-0.84375 q 1.04688,0 1.64063,-0.46875 0.4375,-0.32812 0.4375,-0.875 0,-0.53125 -1.5,-2.71875 l -3.14063,-4.59375 -3.4375,4.59375 q -1.59375,2.14063 -1.59375,2.53125 0,0.5625 0.51563,1.03125 0.53125,0.45313 1.59375,0.5 l 0,0.84375 -7.01563,0 0,-0.84375 q 0.84375,-0.125 1.48438,-0.59375 0.89062,-0.67187 3,-3.46875 l 4.5,-5.96875 -4.07813,-5.90625 q -1.73437,-2.53125 -2.6875,-3.17187 -0.95312,-0.65625 -2.375,-0.65625 l 0,-0.85938 z"
       id="path199"
       inkscape:connector-curvature="0"
       style="fill:#000000;fill-rule:nonzero" />
    <path
       d="m 615.5225,345.67227 q 0.65625,0 1.10938,0.46875 0.46875,0.45313 0.46875,1.10938 0,0.65625 -0.46875,1.125 -0.45313,0.46875 -1.10938,0.46875 -0.65625,0 -1.125,-0.46875 -0.46875,-0.46875 -0.46875,-1.125 0,-0.65625 0.45313,-1.10938 0.46875,-0.46875 1.14062,-0.46875 z m 1.29688,7.48438 0,11.5 q 0,1.34375 0.1875,1.79687 0.20312,0.4375 0.57812,0.65625 0.39063,0.21875 1.40625,0.21875 l 0,0.5625 -6.95312,0 0,-0.5625 q 1.04687,0 1.40625,-0.20312 0.35937,-0.20313 0.5625,-0.67188 0.21875,-0.46875 0.21875,-1.79687 l 0,-5.51563 q 0,-2.32812 -0.14063,-3.01562 -0.10937,-0.5 -0.34375,-0.6875 -0.23437,-0.20313 -0.64062,-0.20313 -0.4375,0 -1.0625,0.23438 l -0.21875,-0.5625 4.3125,-1.75 0.6875,0 z"
       id="path201"
       inkscape:connector-curvature="0"
       style="fill:#000000;fill-rule:nonzero" />
    <path
       d="m 635.2703,459.11023 270.36224,0 0,324.25195 -270.36224,0 z"
       id="path203"
       inkscape:connector-curvature="0"
       style="fill:#c9daf8;fill-rule:evenodd" />
    <path
       d="m 635.2703,459.11023 270.36224,0 0,324.25195 -270.36224,0 z"
       id="path205"
       inkscape:connector-curvature="0"
       style="fill-rule:evenodd;stroke:#1c4587;stroke-width:2;stroke-linecap:butt;stroke-linejoin:round;stroke-dasharray:16, 6" />
    <path
       d="m 734.9749,477.11584 0,0 c 0,-4.74307 3.84503,-8.5881 8.58807,-8.5881 l 34.35138,0 0,0 c 2.27771,0 4.4621,0.90481 6.0727,2.51541 1.61059,1.61056 2.51538,3.79498 2.51538,6.07269 l 0,285.56396 c 0,4.74304 -3.84497,8.58807 -8.58808,8.58807 l -34.35138,0 c -4.74304,0 -8.58807,-3.84503 -8.58807,-8.58807 z"
       id="path207"
       inkscape:connector-curvature="0"
       style="fill:#fce5cd;fill-rule:evenodd" />
    <path
       d="m 734.9749,477.11584 0,0 c 0,-4.74307 3.84503,-8.5881 8.58807,-8.5881 l 34.35138,0 0,0 c 2.27771,0 4.4621,0.90481 6.0727,2.51541 1.61059,1.61056 2.51538,3.79498 2.51538,6.07269 l 0,285.56396 c 0,4.74304 -3.84497,8.58807 -8.58808,8.58807 l -34.35138,0 c -4.74304,0 -8.58807,-3.84503 -8.58807,-8.58807 z"
       id="path209"
       inkscape:connector-curvature="0"
       style="fill-rule:evenodd;stroke:#000000;stroke-width:2;stroke-linecap:butt;stroke-linejoin:round" />
    <path
       d="m 741.0209,507.98087 0,0 c 0,-10.67169 8.65112,-19.32282 19.32288,-19.32282 l 0,0 c 5.12469,0 10.03955,2.0358 13.66326,5.65952 3.62378,3.62375 5.65955,8.53857 5.65955,13.6633 l 0,0 c 0,10.67172 -8.65112,19.32285 -19.32281,19.32285 l 0,0 c -10.67176,0 -19.32288,-8.65113 -19.32288,-19.32285 z"
       id="path211"
       inkscape:connector-curvature="0"
       style="fill:#d9d9d9;fill-rule:evenodd" />
    <path
       d="m 741.0209,507.98087 0,0 c 0,-10.67169 8.65112,-19.32282 19.32288,-19.32282 l 0,0 c 5.12469,0 10.03955,2.0358 13.66326,5.65952 3.62378,3.62375 5.65955,8.53857 5.65955,13.6633 l 0,0 c 0,10.67172 -8.65112,19.32285 -19.32281,19.32285 l 0,0 c -10.67176,0 -19.32288,-8.65113 -19.32288,-19.32285 z"
       id="path213"
       inkscape:connector-curvature="0"
       style="fill-rule:evenodd;stroke:#000000;stroke-width:2;stroke-linecap:butt;stroke-linejoin:round" />
    <path
       d="m 741.0209,557.09766 0,0 c 0,-10.67169 8.65112,-19.32281 19.32288,-19.32281 l 0,0 c 5.12469,0 10.03955,2.03576 13.66326,5.65954 3.62378,3.62372 5.65955,8.53858 5.65955,13.66327 l 0,0 c 0,10.67175 -8.65112,19.32288 -19.32281,19.32288 l 0,0 c -10.67176,0 -19.32288,-8.65113 -19.32288,-19.32288 z"
       id="path215"
       inkscape:connector-curvature="0"
       style="fill:#d9d9d9;fill-rule:evenodd" />
    <path
       d="m 741.0209,557.09766 0,0 c 0,-10.67169 8.65112,-19.32281 19.32288,-19.32281 l 0,0 c 5.12469,0 10.03955,2.03576 13.66326,5.65954 3.62378,3.62372 5.65955,8.53858 5.65955,13.66327 l 0,0 c 0,10.67175 -8.65112,19.32288 -19.32281,19.32288 l 0,0 c -10.67176,0 -19.32288,-8.65113 -19.32288,-19.32288 z"
       id="path217"
       inkscape:connector-curvature="0"
       style="fill-rule:evenodd;stroke:#000000;stroke-width:2;stroke-linecap:butt;stroke-linejoin:round" />
    <path
       d="m 741.0209,738.6579 0,0 c 0,-10.67169 8.65112,-19.32281 19.32288,-19.32281 l 0,0 c 5.12469,0 10.03955,2.03576 13.66326,5.65954 3.62378,3.62372 5.65955,8.53858 5.65955,13.66327 l 0,0 c 0,10.67175 -8.65112,19.32288 -19.32281,19.32288 l 0,0 c -10.67176,0 -19.32288,-8.65113 -19.32288,-19.32288 z"
       id="path219"
       inkscape:connector-curvature="0"
       style="fill:#d9d9d9;fill-rule:evenodd" />
    <path
       d="m 741.0209,738.6579 0,0 c 0,-10.67169 8.65112,-19.32281 19.32288,-19.32281 l 0,0 c 5.12469,0 10.03955,2.03576 13.66326,5.65954 3.62378,3.62372 5.65955,8.53858 5.65955,13.66327 l 0,0 c 0,10.67175 -8.65112,19.32288 -19.32281,19.32288 l 0,0 c -10.67176,0 -19.32288,-8.65113 -19.32288,-19.32288 z"
       id="path221"
       inkscape:connector-curvature="0"
       style="fill-rule:evenodd;stroke:#000000;stroke-width:2;stroke-linecap:butt;stroke-linejoin:round" />
    <path
       d="m 741.0209,605.3871 0,0 c 0,-10.67169 8.65112,-19.32281 19.32288,-19.32281 l 0,0 c 5.12469,0 10.03955,2.03576 13.66326,5.65954 3.62378,3.62372 5.65955,8.53858 5.65955,13.66327 l 0,0 c 0,10.67169 -8.65112,19.32288 -19.32281,19.32288 l 0,0 c -10.67176,0 -19.32288,-8.65119 -19.32288,-19.32288 z"
       id="path223"
       inkscape:connector-curvature="0"
       style="fill:#d9d9d9;fill-rule:evenodd" />
    <path
       d="m 741.0209,605.3871 0,0 c 0,-10.67169 8.65112,-19.32281 19.32288,-19.32281 l 0,0 c 5.12469,0 10.03955,2.03576 13.66326,5.65954 3.62378,3.62372 5.65955,8.53858 5.65955,13.66327 l 0,0 c 0,10.67169 -8.65112,19.32288 -19.32281,19.32288 l 0,0 c -10.67176,0 -19.32288,-8.65119 -19.32288,-19.32288 z"
       id="path225"
       inkscape:connector-curvature="0"
       style="fill-rule:evenodd;stroke:#000000;stroke-width:2;stroke-linecap:butt;stroke-linejoin:round" />
    <path
       d="m 753.29,648.41406 0,0 c 0,-4.00079 3.24329,-7.24408 7.24408,-7.24408 l 0,0 c 1.92126,0 3.76385,0.76324 5.12238,2.12177 1.35852,1.35852 2.12176,3.20105 2.12176,5.12231 l 0,0 c 0,4.00079 -3.24329,7.24408 -7.24414,7.24408 l 0,0 c -4.00079,0 -7.24408,-3.24329 -7.24408,-7.24408 z"
       id="path227"
       inkscape:connector-curvature="0"
       style="fill:#000000;fill-rule:evenodd" />
    <path
       d="m 753.29,648.41406 0,0 c 0,-4.00079 3.24329,-7.24408 7.24408,-7.24408 l 0,0 c 1.92126,0 3.76385,0.76324 5.12238,2.12177 1.35852,1.35852 2.12176,3.20105 2.12176,5.12231 l 0,0 c 0,4.00079 -3.24329,7.24408 -7.24414,7.24408 l 0,0 c -4.00079,0 -7.24408,-3.24329 -7.24408,-7.24408 z"
       id="path229"
       inkscape:connector-curvature="0"
       style="fill-rule:evenodd;stroke:#000000;stroke-width:1;stroke-linecap:butt;stroke-linejoin:round" />
    <path
       d="m 753.0879,672.01196 0,0 c 0,-4.00079 3.24329,-7.24408 7.24408,-7.24408 l 0,0 c 1.92126,0 3.76385,0.76318 5.12238,2.1217 1.35852,1.35859 2.12176,3.20112 2.12176,5.12238 l 0,0 c 0,4.00079 -3.24329,7.24408 -7.24414,7.24408 l 0,0 c -4.00079,0 -7.24408,-3.24329 -7.24408,-7.24408 z"
       id="path231"
       inkscape:connector-curvature="0"
       style="fill:#000000;fill-rule:evenodd" />
    <path
       d="m 753.0879,672.01196 0,0 c 0,-4.00079 3.24329,-7.24408 7.24408,-7.24408 l 0,0 c 1.92126,0 3.76385,0.76318 5.12238,2.1217 1.35852,1.35859 2.12176,3.20112 2.12176,5.12238 l 0,0 c 0,4.00079 -3.24329,7.24408 -7.24414,7.24408 l 0,0 c -4.00079,0 -7.24408,-3.24329 -7.24408,-7.24408 z"
       id="path233"
       inkscape:connector-curvature="0"
       style="fill-rule:evenodd;stroke:#000000;stroke-width:1;stroke-linecap:butt;stroke-linejoin:round" />
    <path
       d="m 753.29,695.60864 0,0 c 0,-4.00079 3.24329,-7.24408 7.24408,-7.24408 l 0,0 c 1.92126,0 3.76385,0.76325 5.12238,2.12177 1.35852,1.35852 2.12176,3.20111 2.12176,5.12231 l 0,0 c 0,4.00079 -3.24329,7.24414 -7.24414,7.24414 l 0,0 c -4.00079,0 -7.24408,-3.24335 -7.24408,-7.24414 z"
       id="path235"
       inkscape:connector-curvature="0"
       style="fill:#000000;fill-rule:evenodd" />
    <path
       d="m 753.29,695.60864 0,0 c 0,-4.00079 3.24329,-7.24408 7.24408,-7.24408 l 0,0 c 1.92126,0 3.76385,0.76325 5.12238,2.12177 1.35852,1.35852 2.12176,3.20111 2.12176,5.12231 l 0,0 c 0,4.00079 -3.24329,7.24414 -7.24414,7.24414 l 0,0 c -4.00079,0 -7.24408,-3.24335 -7.24408,-7.24414 z"
       id="path237"
       inkscape:connector-curvature="0"
       style="fill-rule:evenodd;stroke:#000000;stroke-width:1;stroke-linecap:butt;stroke-linejoin:round" />
    <path
       d="m 635.2704,584.15356 125.48029,0 0,72.8819 -125.48029,0 z"
       id="path239"
       inkscape:connector-curvature="0"
       style="fill:#000000;fill-opacity:0;fill-rule:evenodd" />
    <path
       d="m 691.8485,605.89325 0,0.85937 q -0.89063,0.0781 -1.5,0.5 -0.60938,0.42188 -1.07813,1.28125 -0.14062,0.28125 -1.46875,3.64063 l -9.96875,26.23437 -0.90625,0 -7.875,-20.5 -8.67187,20.5 -0.875,0 -10.45313,-25.95312 q -1.59375,-3.92188 -2.23437,-4.73438 -0.625,-0.82812 -2.125,-0.96875 l 0,-0.85937 13.78125,0 0,0.85937 q -1.65625,0.0469 -2.21875,0.51563 -0.54688,0.45312 -0.54688,1.125 0,0.89062 1.15625,3.78125 l 6.23438,15.42187 4.98437,-12.04687 -1.3125,-3.375 q -1.07812,-2.76563 -1.67187,-3.6875 -0.57813,-0.9375 -1.34375,-1.32813 -0.75,-0.40625 -2.23438,-0.40625 l 0,-0.85937 15.40625,0 0,0.85937 q -1.625,0.0312 -2.32812,0.26563 -0.48438,0.15625 -0.76563,0.54687 -0.28125,0.39063 -0.28125,0.875 0,0.54688 1.04688,3.3125 l 5.79687,15.04688 5.17188,-13.625 q 0.82812,-2.10938 1.01562,-2.875 0.1875,-0.78125 0.1875,-1.4375 0,-0.95313 -0.65625,-1.5 -0.65625,-0.5625 -2.51562,-0.60938 l 0,-0.85937 8.25,0 z"
       id="path241"
       inkscape:connector-curvature="0"
       style="fill:#000000;fill-rule:nonzero" />
    <path
       d="m 706.94226,651.5964 -1.48437,4.07813 -12.5,0 0,-0.57813 q 5.51562,-5.03125 7.76562,-8.21875 2.25,-3.1875 2.25,-5.82812 0,-2.01563 -1.23437,-3.3125 -1.23438,-1.29688 -2.95313,-1.29688 -1.5625,0 -2.8125,0.92188 -1.23437,0.90625 -1.82812,2.67187 l -0.57813,0 q 0.39063,-2.89062 2,-4.4375 1.625,-1.54687 4.04688,-1.54687 2.57812,0 4.29687,1.65625 1.73438,1.65625 1.73438,3.90625 0,1.60937 -0.75,3.21875 -1.15625,2.53125 -3.75,5.35937 -3.89063,4.25 -4.85938,5.125 l 5.53125,0 q 1.6875,0 2.35938,-0.125 0.6875,-0.125 1.23437,-0.5 0.54688,-0.39062 0.95313,-1.09375 l 0.57812,0 z"
       id="path243"
       inkscape:connector-curvature="0"
       style="fill:#000000;fill-rule:nonzero" />
    <path
       d="m 728.4579,598.487 0,5.73437 -0.5625,0 q -0.5,-1.98437 -1.10938,-2.84375 -0.60937,-0.875 -1.67187,-1.39062 -0.59375,-0.28125 -2.07813,-0.28125 l -1.57812,0 0,16.34375 q 0,1.625 0.17187,2.03125 0.1875,0.40625 0.70313,0.71875 0.53125,0.29687 1.4375,0.29687 l 0.70312,0 0,0.57813 -11.09375,0 0,-0.57813 0.70313,0 q 0.92187,0 1.48437,-0.32812 0.40625,-0.21875 0.64063,-0.75 0.17187,-0.375 0.17187,-1.96875 l 0,-16.34375 -1.53125,0 q -2.14062,0 -3.10937,0.90625 -1.35938,1.26562 -1.71875,3.60937 l -0.59375,0 0,-5.73437 19.03125,0 z"
       id="path245"
       inkscape:connector-curvature="0"
       style="fill:#000000;fill-rule:nonzero" />
    <path
       d="m 795.2887,593.83466 144.44098,0 0,52.12598 -144.44098,0 z"
       id="path247"
       inkscape:connector-curvature="0"
       style="fill:#000000;fill-opacity:0;fill-rule:evenodd" />
    <path
       d="m 813.9293,631.41516 0,-9.42187 -9.35938,0 0,-3.9375 9.35938,0 0,-9.34375 3.98437,0 0,9.34375 9.34375,0 0,3.9375 -9.34375,0 0,9.42187 -3.98437,0 z"
       id="path249"
       inkscape:connector-curvature="0"
       style="fill:#000000;fill-rule:nonzero" />
    <path
       d="m 867.4606,604.46204 -4.0625,14.14062 q 1.85937,-2.01562 3.09375,-2.6875 1.25,-0.67187 2.70312,-0.67187 2.8125,0 4.20313,2.03125 1.39062,2.03125 1.39062,4.67187 0,6.32813 -4.59375,11.29688 -4.07812,4.39062 -9.28125,4.39062 -3.85937,0 -8.17187,-2.28125 l 7.17187,-24.85937 q 0.51563,-1.76563 0.51563,-2.42188 0,-0.5625 -0.46875,-0.89062 -0.65625,-0.46875 -2,-0.39063 l 0.26562,-0.9375 7.82813,-1.39062 1.40625,0 z m -9,31.125 q 1.09375,0.70312 1.98437,0.70312 1.25,0 2.09375,-0.48437 1.32813,-0.79688 2.79688,-2.875 1.46875,-2.09375 2.45312,-5.04688 0.98438,-2.95312 0.98438,-5.89062 0,-1.65625 -0.75,-2.51563 -0.75,-0.875 -1.73438,-0.875 -1.64062,0 -2.85937,1.59375 -0.82813,1.03125 -1.78125,4.375 l -3.1875,11.01563 z"
       id="path251"
       inkscape:connector-curvature="0"
       style="fill:#000000;fill-rule:nonzero" />
    <path
       d="m 890.9606,650.89954 -1.48438,4.07812 -12.5,0 0,-0.57812 q 5.51563,-5.03125 7.76563,-8.21875 2.25,-3.1875 2.25,-5.82813 0,-2.01562 -1.23438,-3.3125 -1.23437,-1.29687 -2.95312,-1.29687 -1.5625,0 -2.8125,0.92187 -1.23438,0.90625 -1.82813,2.67188 l -0.57812,0 q 0.39062,-2.89063 2,-4.4375 1.625,-1.54688 4.04687,-1.54688 2.57813,0 4.29688,1.65625 1.73437,1.65625 1.73437,3.90625 0,1.60938 -0.75,3.21875 -1.15625,2.53125 -3.75,5.35938 -3.89062,4.25 -4.85937,5.125 l 5.53125,0 q 1.6875,0 2.35937,-0.125 0.6875,-0.125 1.23438,-0.5 0.54687,-0.39063 0.95312,-1.09375 l 0.57813,0 z"
       id="path253"
       inkscape:connector-curvature="0"
       style="fill:#000000;fill-rule:nonzero" />
    <path
       d="m 546.1076,621.2362 81.25983,0"
       id="path255"
       inkscape:connector-curvature="0"
       style="fill:#000000;fill-opacity:0;fill-rule:evenodd" />
    <path
       d="m 557.4776,621.2362 51.88983,0"
       id="path257"
       inkscape:connector-curvature="0"
       style="fill-rule:evenodd;stroke:#999999;stroke-width:3;stroke-linecap:butt;stroke-linejoin:round" />
    <path
       d="m 557.4776,626.1712 -9.86999,0 0,-9.87 9.86999,0 0,9.87 z"
       id="path259"
       inkscape:connector-curvature="0"
       style="fill-rule:nonzero;stroke:#999999;stroke-width:3;stroke-linecap:butt" />
    <path
       d="m 609.36743,626.1914 13.61432,-4.9552 -13.61432,-4.9552 z"
       id="path261"
       inkscape:connector-curvature="0"
       style="fill:#999999;fill-rule:evenodd;stroke:#999999;stroke-width:3;stroke-linecap:butt" />
    <path
       d="m 699.1076,42.04462 329.5118,0 0,329.41733 -329.5118,0 z"
       id="path263"
       inkscape:connector-curvature="0"
       style="fill:#fff2cc;fill-rule:evenodd" />
    <path
       d="m 699.1076,42.04462 329.5118,0 0,329.41733 -329.5118,0 z"
       id="path265"
       inkscape:connector-curvature="0"
       style="fill-rule:evenodd;stroke:#7f6000;stroke-width:2;stroke-linecap:butt;stroke-linejoin:round;stroke-dasharray:16, 6" />
    <path
       d="m 826.1219,65.8875 0,0 c 0,-4.74308 3.84503,-8.5881 8.58813,-8.5881 l 34.35132,0 0,0 c 2.27771,0 4.46216,0.904816 6.0727,2.515396 1.61059,1.61058 2.51544,3.794994 2.51544,6.072704 l 0,285.56396 c 0,4.74307 -3.84503,8.5881 -8.58814,8.5881 l -34.35132,0 c -4.7431,0 -8.58813,-3.84503 -8.58813,-8.5881 z"
       id="path267"
       inkscape:connector-curvature="0"
       style="fill:#d9ead3;fill-rule:evenodd" />
    <path
       d="m 826.1219,65.8875 0,0 c 0,-4.74308 3.84503,-8.5881 8.58813,-8.5881 l 34.35132,0 0,0 c 2.27771,0 4.46216,0.904816 6.0727,2.515396 1.61059,1.61058 2.51544,3.794994 2.51544,6.072704 l 0,285.56396 c 0,4.74307 -3.84503,8.5881 -8.58814,8.5881 l -34.35132,0 c -4.7431,0 -8.58813,-3.84503 -8.58813,-8.5881 z"
       id="path269"
       inkscape:connector-curvature="0"
       style="fill-rule:evenodd;stroke:#000000;stroke-width:2;stroke-linecap:butt;stroke-linejoin:round" />
    <path
       d="m 832.1679,96.75253 0,0 c 0,-10.671707 8.65112,-19.322838 19.32282,-19.322838 l 0,0 c 5.12469,0 10.03955,2.035797 13.66326,5.659531 3.62378,3.623733 5.65955,8.538574 5.65955,13.663307 l 0,0 c 0,10.67171 -8.65112,19.32283 -19.32281,19.32283 l 0,0 c -10.6717,0 -19.32282,-8.65112 -19.32282,-19.32283 z"
       id="path271"
       inkscape:connector-curvature="0"
       style="fill:#d9d9d9;fill-rule:evenodd" />
    <path
       d="m 832.1679,96.75253 0,0 c 0,-10.671707 8.65112,-19.322838 19.32282,-19.322838 l 0,0 c 5.12469,0 10.03955,2.035797 13.66326,5.659531 3.62378,3.623733 5.65955,8.538574 5.65955,13.663307 l 0,0 c 0,10.67171 -8.65112,19.32283 -19.32281,19.32283 l 0,0 c -10.6717,0 -19.32282,-8.65112 -19.32282,-19.32283 z"
       id="path273"
       inkscape:connector-curvature="0"
       style="fill-rule:evenodd;stroke:#000000;stroke-width:2;stroke-linecap:butt;stroke-linejoin:round" />
    <path
       d="m 786.50134,78.855965 0,0 c 0,-10.799446 8.75464,-19.554127 19.55408,-19.554127 l 149.23822,0 c 5.18609,0 10.15973,2.060162 13.82684,5.727268 3.66711,3.667114 5.7273,8.640785 5.7273,13.826858 l 0,263.631896 c 0,10.79947 -8.7547,19.55414 -19.55414,19.55414 l -149.23822,0 c -10.79944,0 -19.55408,-8.75467 -19.55408,-19.55414 z"
       id="path275"
       inkscape:connector-curvature="0"
       style="fill:#000000;fill-opacity:0;fill-rule:evenodd" />
    <path
       d="m 806.0554,362.042 c -10.79944,0 -19.55408,-8.75467 -19.55408,-19.55414 l 0,-263.631898 0,0 c 0,-10.799446 8.75464,-19.554127 19.55408,-19.554127 m 149.23822,0 c 5.1861,0 10.15973,2.060162 13.82684,5.727268 3.66712,3.667114 5.7273,8.640785 5.7273,13.826858 l 0,263.631899 c 0,10.79947 -8.7547,19.55414 -19.55414,19.55414"
       id="path277"
       inkscape:connector-curvature="0"
       style="fill:#000000;fill-opacity:0;fill-rule:evenodd" />
    <path
       d="m 806.0554,362.042 c -10.79944,0 -19.55408,-8.75467 -19.55408,-19.55414 l 0,-263.631898 0,0 c 0,-10.799446 8.75464,-19.554127 19.55408,-19.554127 m 149.23822,0 c 5.1861,0 10.15973,2.060162 13.82684,5.727268 3.66712,3.667114 5.7273,8.640785 5.7273,13.826858 l 0,263.631899 c 0,10.79947 -8.7547,19.55414 -19.55414,19.55414"
       id="path279"
       inkscape:connector-curvature="0"
       style="fill-rule:evenodd;stroke:#666666;stroke-width:3;stroke-linecap:butt;stroke-linejoin:round" />
    <path
       d="m 832.1679,145.86932 0,0 c 0,-10.67171 8.65112,-19.32283 19.32282,-19.32283 l 0,0 c 5.12469,0 10.03955,2.0358 13.66326,5.65953 3.62378,3.62373 5.65955,8.53857 5.65955,13.6633 l 0,0 c 0,10.67171 -8.65112,19.32283 -19.32281,19.32283 l 0,0 c -10.6717,0 -19.32282,-8.65112 -19.32282,-19.32283 z"
       id="path281"
       inkscape:connector-curvature="0"
       style="fill:#d9d9d9;fill-rule:evenodd" />
    <path
       d="m 832.1679,145.86932 0,0 c 0,-10.67171 8.65112,-19.32283 19.32282,-19.32283 l 0,0 c 5.12469,0 10.03955,2.0358 13.66326,5.65953 3.62378,3.62373 5.65955,8.53857 5.65955,13.6633 l 0,0 c 0,10.67171 -8.65112,19.32283 -19.32281,19.32283 l 0,0 c -10.6717,0 -19.32282,-8.65112 -19.32282,-19.32283 z"
       id="path283"
       inkscape:connector-curvature="0"
       style="fill-rule:evenodd;stroke:#000000;stroke-width:2;stroke-linecap:butt;stroke-linejoin:round" />
    <path
       d="m 832.1679,327.42957 0,0 c 0,-10.67169 8.65112,-19.32281 19.32282,-19.32281 l 0,0 c 5.12469,0 10.03955,2.03576 13.66326,5.65951 3.62378,3.62375 5.65955,8.53857 5.65955,13.6633 l 0,0 c 0,10.67172 -8.65112,19.32285 -19.32281,19.32285 l 0,0 c -10.6717,0 -19.32282,-8.65113 -19.32282,-19.32285 z"
       id="path285"
       inkscape:connector-curvature="0"
       style="fill:#d9d9d9;fill-rule:evenodd" />
    <path
       d="m 832.1679,327.42957 0,0 c 0,-10.67169 8.65112,-19.32281 19.32282,-19.32281 l 0,0 c 5.12469,0 10.03955,2.03576 13.66326,5.65951 3.62378,3.62375 5.65955,8.53857 5.65955,13.6633 l 0,0 c 0,10.67172 -8.65112,19.32285 -19.32281,19.32285 l 0,0 c -10.6717,0 -19.32282,-8.65113 -19.32282,-19.32285 z"
       id="path287"
       inkscape:connector-curvature="0"
       style="fill-rule:evenodd;stroke:#000000;stroke-width:2;stroke-linecap:butt;stroke-linejoin:round" />
    <path
       d="m 832.1679,194.15875 0,0 c 0,-10.67171 8.65112,-19.32283 19.32282,-19.32283 l 0,0 c 5.12469,0 10.03955,2.03578 13.66326,5.65952 3.62378,3.62373 5.65955,8.53857 5.65955,13.66331 l 0,0 c 0,10.67171 -8.65112,19.32283 -19.32281,19.32283 l 0,0 c -10.6717,0 -19.32282,-8.65112 -19.32282,-19.32283 z"
       id="path289"
       inkscape:connector-curvature="0"
       style="fill:#d9d9d9;fill-rule:evenodd" />
    <path
       d="m 832.1679,194.15875 0,0 c 0,-10.67171 8.65112,-19.32283 19.32282,-19.32283 l 0,0 c 5.12469,0 10.03955,2.03578 13.66326,5.65952 3.62378,3.62373 5.65955,8.53857 5.65955,13.66331 l 0,0 c 0,10.67171 -8.65112,19.32283 -19.32281,19.32283 l 0,0 c -10.6717,0 -19.32282,-8.65112 -19.32282,-19.32283 z"
       id="path291"
       inkscape:connector-curvature="0"
       style="fill-rule:evenodd;stroke:#000000;stroke-width:2;stroke-linecap:butt;stroke-linejoin:round" />
    <path
       d="m 844.43695,237.18573 0,0 c 0,-4.00081 3.24329,-7.24409 7.24414,-7.24409 l 0,0 c 1.9212,0 3.76379,0.76321 5.12232,2.12174 1.35852,1.35854 2.12176,3.2011 2.12176,5.12235 l 0,0 c 0,4.00081 -3.24329,7.24409 -7.24408,7.24409 l 0,0 c -4.00085,0 -7.24414,-3.24328 -7.24414,-7.24409 z"
       id="path293"
       inkscape:connector-curvature="0"
       style="fill:#000000;fill-rule:evenodd" />
    <path
       d="m 844.43695,237.18573 0,0 c 0,-4.00081 3.24329,-7.24409 7.24414,-7.24409 l 0,0 c 1.9212,0 3.76379,0.76321 5.12232,2.12174 1.35852,1.35854 2.12176,3.2011 2.12176,5.12235 l 0,0 c 0,4.00081 -3.24329,7.24409 -7.24408,7.24409 l 0,0 c -4.00085,0 -7.24414,-3.24328 -7.24414,-7.24409 z"
       id="path295"
       inkscape:connector-curvature="0"
       style="fill-rule:evenodd;stroke:#000000;stroke-width:1;stroke-linecap:butt;stroke-linejoin:round" />
    <path
       d="m 844.23486,260.78363 0,0 c 0,-4.00082 3.24329,-7.24411 7.24414,-7.24411 l 0,0 c 1.9212,0 3.76379,0.76321 5.12232,2.12175 1.35852,1.35854 2.12176,3.2011 2.12176,5.12236 l 0,0 c 0,4.00079 -3.24329,7.24408 -7.24408,7.24408 l 0,0 c -4.00085,0 -7.24414,-3.24329 -7.24414,-7.24408 z"
       id="path297"
       inkscape:connector-curvature="0"
       style="fill:#000000;fill-rule:evenodd" />
    <path
       d="m 844.23486,260.78363 0,0 c 0,-4.00082 3.24329,-7.24411 7.24414,-7.24411 l 0,0 c 1.9212,0 3.76379,0.76321 5.12232,2.12175 1.35852,1.35854 2.12176,3.2011 2.12176,5.12236 l 0,0 c 0,4.00079 -3.24329,7.24408 -7.24408,7.24408 l 0,0 c -4.00085,0 -7.24414,-3.24329 -7.24414,-7.24408 z"
       id="path299"
       inkscape:connector-curvature="0"
       style="fill-rule:evenodd;stroke:#000000;stroke-width:1;stroke-linecap:butt;stroke-linejoin:round" />
    <path
       d="m 844.43695,284.3803 0,0 c 0,-4.00079 3.24329,-7.24408 7.24414,-7.24408 l 0,0 c 1.9212,0 3.76379,0.76321 5.12232,2.12173 1.35852,1.35853 2.12176,3.20112 2.12176,5.12235 l 0,0 c 0,4.00079 -3.24329,7.24411 -7.24408,7.24411 l 0,0 c -4.00085,0 -7.24414,-3.24332 -7.24414,-7.24411 z"
       id="path301"
       inkscape:connector-curvature="0"
       style="fill:#000000;fill-rule:evenodd" />
    <path
       d="m 844.43695,284.3803 0,0 c 0,-4.00079 3.24329,-7.24408 7.24414,-7.24408 l 0,0 c 1.9212,0 3.76379,0.76321 5.12232,2.12173 1.35852,1.35853 2.12176,3.20112 2.12176,5.12235 l 0,0 c 0,4.00079 -3.24329,7.24411 -7.24408,7.24411 l 0,0 c -4.00085,0 -7.24414,-3.24332 -7.24414,-7.24411 z"
       id="path303"
       inkscape:connector-curvature="0"
       style="fill-rule:evenodd;stroke:#000000;stroke-width:1;stroke-linecap:butt;stroke-linejoin:round" />
    <path
       d="m 707.9055,172.22835 75.77954,0 0,72.88188 -75.77954,0 z"
       id="path305"
       inkscape:connector-curvature="0"
       style="fill:#000000;fill-opacity:0;fill-rule:evenodd" />
    <path
       d="m 718.1555,184.50053 39.73437,0 1.04688,13.3125 -1.48438,0 q -0.26562,-3.9375 -1.32812,-6.03125 -1.04688,-2.09375 -2.89063,-3.03125 -1.82812,-0.9375 -5.8125,-0.9375 l -18.09375,0 16.14063,20.70312 -18.35938,21.6875 20.10938,0 q 5.46875,0 8.35937,-1.75 2.89063,-1.76562 4.34375,-7.35937 l 1.48438,0.35937 -2.26563,16.01563 -40.98437,0 0,-1.40625 20.39062,-24.0625 -20.39062,-26.09375 0,-1.40625 z"
       id="path307"
       inkscape:connector-curvature="0"
       style="fill:#000000;fill-rule:nonzero" />
    <path
       d="m 890.276,207.11613 28.40076,0 0,7.11156 -28.40076,0 z"
       id="path309"
       inkscape:connector-curvature="0"
       style="fill:#000000;fill-rule:evenodd" />
    <path
       d="m 890.276,207.11613 28.40076,0 0,7.11156 -28.40076,0 z"
       id="path311"
       inkscape:connector-curvature="0"
       style="fill-rule:evenodd;stroke:#000000;stroke-width:1;stroke-linecap:butt;stroke-linejoin:round" />
    <path
       d="m 914.8635,145.68767 76.94489,0 0,128.62993 -76.94489,0 z"
       id="path313"
       inkscape:connector-curvature="0"
       style="fill:#000000;fill-opacity:0;fill-rule:evenodd" />
    <path
       d="m 941.8948,221.42638 0.70313,0.64062 q -2.28125,2.71875 -4.48438,3.98438 -2.92187,1.6875 -6.0625,1.6875 -2.10937,0 -3.75,-0.90625 -1.625,-0.90625 -2.40625,-2.53125 -0.76562,-1.625 -0.76562,-3.34375 0,-3.84375 2.07812,-7.54688 2.09375,-3.71875 5.51563,-5.89062 3.42187,-2.17188 6.73437,-2.17188 2.64063,0 3.96875,1.17188 1.34375,1.17187 1.34375,2.90625 0,1.57812 -1.01562,2.6875 -1,1.09375 -2.23438,1.09375 -1.07812,0 -1.79687,-0.70313 -0.71875,-0.70312 -0.71875,-1.67187 0,-1.26563 1.26562,-2.20313 0.875,-0.65625 0.875,-1.14062 0,-0.42188 -0.35937,-0.6875 -0.46875,-0.375 -1.21875,-0.375 -1.96875,0 -3.70313,1.59375 -2.29687,2.10937 -3.51562,5.34375 -1.21875,3.23437 -1.21875,6.14062 0,2.29688 1.23437,3.67188 1.25,1.375 2.96875,1.375 1.5,0 3.23438,-0.76563 1.75,-0.78125 3.32812,-2.35937 z"
       id="path315"
       inkscape:connector-curvature="0"
       style="fill:#000000;fill-rule:nonzero" />
    <path
       d="m 949.80884,222.86388 q 0.65625,0 1.10938,0.46875 0.46875,0.45312 0.46875,1.10937 0,0.65625 -0.46875,1.125 -0.45313,0.46875 -1.10938,0.46875 -0.65625,0 -1.125,-0.46875 -0.46875,-0.46875 -0.46875,-1.125 0,-0.65625 0.45313,-1.10937 0.46875,-0.46875 1.14062,-0.46875 z m 1.29688,7.48437 0,11.5 q 0,1.34375 0.1875,1.79688 0.20312,0.4375 0.57812,0.65625 0.39063,0.21875 1.40625,0.21875 l 0,0.5625 -6.95312,0 0,-0.5625 q 1.04687,0 1.40625,-0.20313 0.35937,-0.20312 0.5625,-0.67187 0.21875,-0.46875 0.21875,-1.79688 l 0,-5.51562 q 0,-2.32813 -0.14063,-3.01563 -0.10937,-0.5 -0.34375,-0.6875 -0.23437,-0.20312 -0.64062,-0.20312 -0.4375,0 -1.0625,0.23437 l -0.21875,-0.5625 4.3125,-1.75 0.6875,0 z"
       id="path317"
       inkscape:connector-curvature="0"
       style="fill:#000000;fill-rule:nonzero" />
    <path
       d="m 974.8478,53.664043 47.559,0 0,72.881877 -47.559,0 z"
       id="path319"
       inkscape:connector-curvature="0"
       style="fill:#000000;fill-opacity:0;fill-rule:evenodd" />
    <path
       d="m 1003.7228,107.18498 -18.70313,0 0,-0.51563 q 8.60938,-10.249995 10.4375,-13.781245 1.84375,-3.546875 1.84375,-6.921875 0,-2.453125 -1.53125,-4.078125 -1.51562,-1.640625 -3.71875,-1.640625 -3.60937,0 -5.59375,3.609375 l -0.875,-0.296875 q 1.26563,-4.5 3.84375,-6.65625 2.57813,-2.15625 5.95313,-2.15625 2.42187,0 4.40625,1.125 2,1.125 3.125,3.078125 1.125,1.953125 1.125,3.671875 0,3.109375 -1.7344,6.328125 -2.37498,4.328125 -10.34373,12.093745 l 6.875,0 q 2.53123,0 3.28123,-0.20312 0.7656,-0.21875 1.25,-0.71875 0.5,-0.515625 1.2969,-2.125 l 0.8437,0 -1.7812,9.1875 z"
       id="path321"
       inkscape:connector-curvature="0"
       style="fill:#000000;fill-rule:nonzero" />
    <path
       d="m 718.0443,219.65092 47.55908,0 0,76.97636 -47.55908,0 z"
       id="path323"
       inkscape:connector-curvature="0"
       style="fill:#000000;fill-opacity:0;fill-rule:evenodd" />
    <path
       d="m 742.01917,247.64037 q 0.65625,0 1.10938,0.46875 0.46875,0.45312 0.46875,1.10937 0,0.65625 -0.46875,1.125 -0.45313,0.46875 -1.10938,0.46875 -0.65625,0 -1.125,-0.46875 -0.46875,-0.46875 -0.46875,-1.125 0,-0.65625 0.45313,-1.10937 0.46875,-0.46875 1.14062,-0.46875 z m 1.29688,7.48437 0,11.49999 q 0,1.34375 0.1875,1.79687 0.20312,0.4375 0.57812,0.65625 0.39063,0.21875 1.40625,0.21875 l 0,0.5625 -6.95312,0 0,-0.5625 q 1.04687,0 1.40625,-0.20312 0.35937,-0.20313 0.5625,-0.67188 0.21875,-0.46875 0.21875,-1.79687 l 0,-5.51563 q 0,-2.32812 -0.14063,-3.01562 -0.10937,-0.5 -0.34375,-0.6875 -0.23437,-0.20313 -0.64062,-0.20313 -0.4375,0 -1.0625,0.23438 l -0.21875,-0.5625 4.3125,-1.74998 0.6875,0 z"
       id="path325"
       inkscape:connector-curvature="0"
       style="fill:#000000;fill-rule:nonzero" />
    <path
       d="m 718.0443,118.57743 47.55908,0 0,76.97637 -47.55908,0 z"
       id="path327"
       inkscape:connector-curvature="0"
       style="fill:#000000;fill-opacity:0;fill-rule:evenodd" />
    <path
       d="m 729.8473,147.59811 5.75,0 12.95313,15.89062 0,-12.21875 q 0,-1.95312 -0.4375,-2.4375 -0.57813,-0.65625 -1.82813,-0.65625 l -0.73437,0 0,-0.57812 7.375,0 0,0.57812 -0.75,0 q -1.34375,0 -1.90625,0.8125 -0.34375,0.5 -0.34375,2.28125 l 0,17.85938 -0.5625,0 -13.96875,-17.0625 0,13.04687 q 0,1.95313 0.42187,2.4375 0.59375,0.65625 1.82813,0.65625 l 0.75,0 0,0.57813 -7.375,0 0,-0.57813 0.73437,0 q 1.35938,0 1.92188,-0.8125 0.34375,-0.5 0.34375,-2.28125 l 0,-14.73437 q -0.92188,-1.07813 -1.40625,-1.42188 -0.46875,-0.34375 -1.39063,-0.64062 -0.45312,-0.14063 -1.375,-0.14063 l 0,-0.57812 z"
       id="path329"
       inkscape:connector-curvature="0"
       style="fill:#000000;fill-rule:nonzero" />
    <path
       d="m 546.56287,212.16554 22.49921,0 0,209.25505 282.8236,0 0,-61.38104"
       id="path331"
       inkscape:connector-curvature="0"
       style="fill:#000000;fill-opacity:0;fill-rule:evenodd" />
    <path
       d="m 557.9328,212.16554 11.12927,0 0,209.25502 282.8236,0 0,-43.38104"
       id="path333"
       inkscape:connector-curvature="0"
       style="fill-rule:evenodd;stroke:#999999;stroke-width:3;stroke-linecap:butt;stroke-linejoin:round" />
    <path
       d="m 557.9328,217.10054 -9.86999,0 0,-9.87 9.86999,0 0,9.87 z"
       id="path335"
       inkscape:connector-curvature="0"
       style="fill-rule:nonzero;stroke:#999999;stroke-width:3;stroke-linecap:butt" />
    <path
       d="m 856.8409,378.03952 -4.9552,-13.61429 -4.9552,13.61429 z"
       id="path337"
       inkscape:connector-curvature="0"
       style="fill:#999999;fill-rule:evenodd;stroke:#999999;stroke-width:3;stroke-linecap:butt" />
    <path
       d="m 974.8478,460.063 324.5984,0 0,324.25195 -324.5984,0 z"
       id="path339"
       inkscape:connector-curvature="0"
       style="fill:#d9d9d9;fill-rule:evenodd" />
    <path
       d="m 974.8478,460.063 324.5984,0 0,324.25195 -324.5984,0 z"
       id="path341"
       inkscape:connector-curvature="0"
       style="fill-rule:evenodd;stroke:#666666;stroke-width:2;stroke-linecap:butt;stroke-linejoin:round;stroke-dasharray:16, 6" />
    <path
       d="m 1087.3412,496.20374 0,0 c 0,-10.79944 8.7548,-19.55414 19.5542,-19.55414 l 149.2382,0 c 5.186,0 10.1598,2.06018 13.8269,5.7273 3.6671,3.66708 5.7271,8.64077 5.7271,13.82684 l 0,263.6319 c 0,10.79944 -8.7546,19.55414 -19.554,19.55414 l -149.2382,0 c -10.7994,0 -19.5542,-8.7547 -19.5542,-19.55414 z"
       id="path343"
       inkscape:connector-curvature="0"
       style="fill:#000000;fill-opacity:0;fill-rule:evenodd" />
    <path
       d="m 1106.8954,779.3898 c -10.7994,0 -19.5542,-8.7547 -19.5542,-19.55414 l 0,-263.6319 0,0 c 0,-10.79944 8.7548,-19.55414 19.5542,-19.55414 m 149.2382,0 c 5.186,0 10.1598,2.06018 13.8269,5.7273 3.6671,3.66708 5.7271,8.64078 5.7271,13.82684 l 0,263.6319 c 0,10.79944 -8.7546,19.55414 -19.554,19.55414"
       id="path345"
       inkscape:connector-curvature="0"
       style="fill:#000000;fill-opacity:0;fill-rule:evenodd" />
    <path
       d="m 1106.8954,779.3898 c -10.7994,0 -19.5542,-8.7547 -19.5542,-19.55414 l 0,-263.6319 0,0 c 0,-10.79944 8.7548,-19.55414 19.5542,-19.55414 m 149.2382,0 c 5.186,0 10.1598,2.06018 13.8269,5.7273 3.6671,3.66708 5.7271,8.64078 5.7271,13.82684 l 0,263.6319 c 0,10.79944 -8.7546,19.55414 -19.554,19.55414"
       id="path347"
       inkscape:connector-curvature="0"
       style="fill-rule:evenodd;stroke:#666666;stroke-width:3;stroke-linecap:butt;stroke-linejoin:round" />
    <path
       d="m 1127.1888,481.98856 0,0 c 0,-4.7431 3.845,-8.5881 8.5881,-8.5881 l 34.3514,0 0,0 c 2.2777,0 4.4621,0.90481 6.0726,2.51538 1.6106,1.61059 2.5155,3.79501 2.5155,6.07272 l 0,285.56393 c 0,4.7431 -3.8451,8.58814 -8.5881,8.58814 l -34.3514,0 c -4.7431,0 -8.5881,-3.84504 -8.5881,-8.58814 z"
       id="path349"
       inkscape:connector-curvature="0"
       style="fill:#c9daf8;fill-rule:evenodd" />
    <path
       d="m 1127.1888,481.98856 0,0 c 0,-4.7431 3.845,-8.5881 8.5881,-8.5881 l 34.3514,0 0,0 c 2.2777,0 4.4621,0.90481 6.0726,2.51538 1.6106,1.61059 2.5155,3.79501 2.5155,6.07272 l 0,285.56393 c 0,4.7431 -3.8451,8.58814 -8.5881,8.58814 l -34.3514,0 c -4.7431,0 -8.5881,-3.84504 -8.5881,-8.58814 z"
       id="path351"
       inkscape:connector-curvature="0"
       style="fill-rule:evenodd;stroke:#000000;stroke-width:2;stroke-linecap:butt;stroke-linejoin:round" />
    <path
       d="m 1133.2349,512.8536 0,0 c 0,-10.67169 8.6511,-19.32281 19.3228,-19.32281 l 0,0 c 5.1247,0 10.0395,2.03576 13.6633,5.65951 3.6238,3.62372 5.6595,8.53857 5.6595,13.6633 l 0,0 c 0,10.67169 -8.6511,19.32282 -19.3228,19.32282 l 0,0 c -10.6717,0 -19.3228,-8.65113 -19.3228,-19.32282 z"
       id="path353"
       inkscape:connector-curvature="0"
       style="fill:#d9d9d9;fill-rule:evenodd" />
    <path
       d="m 1133.2349,512.8536 0,0 c 0,-10.67169 8.6511,-19.32281 19.3228,-19.32281 l 0,0 c 5.1247,0 10.0395,2.03576 13.6633,5.65951 3.6238,3.62372 5.6595,8.53857 5.6595,13.6633 l 0,0 c 0,10.67169 -8.6511,19.32282 -19.3228,19.32282 l 0,0 c -10.6717,0 -19.3228,-8.65113 -19.3228,-19.32282 z"
       id="path355"
       inkscape:connector-curvature="0"
       style="fill-rule:evenodd;stroke:#000000;stroke-width:2;stroke-linecap:butt;stroke-linejoin:round" />
    <path
       d="m 1133.2349,561.9704 0,0 c 0,-10.67175 8.6511,-19.32288 19.3228,-19.32288 l 0,0 c 5.1247,0 10.0395,2.03583 13.6633,5.65955 3.6238,3.62372 5.6595,8.53857 5.6595,13.66333 l 0,0 c 0,10.67169 -8.6511,19.32282 -19.3228,19.32282 l 0,0 c -10.6717,0 -19.3228,-8.65113 -19.3228,-19.32282 z"
       id="path357"
       inkscape:connector-curvature="0"
       style="fill:#d9d9d9;fill-rule:evenodd" />
    <path
       d="m 1133.2349,561.9704 0,0 c 0,-10.67175 8.6511,-19.32288 19.3228,-19.32288 l 0,0 c 5.1247,0 10.0395,2.03583 13.6633,5.65955 3.6238,3.62372 5.6595,8.53857 5.6595,13.66333 l 0,0 c 0,10.67169 -8.6511,19.32282 -19.3228,19.32282 l 0,0 c -10.6717,0 -19.3228,-8.65113 -19.3228,-19.32282 z"
       id="path359"
       inkscape:connector-curvature="0"
       style="fill-rule:evenodd;stroke:#000000;stroke-width:2;stroke-linecap:butt;stroke-linejoin:round" />
    <path
       d="m 1133.2349,743.53064 0,0 c 0,-10.67175 8.6511,-19.32288 19.3228,-19.32288 l 0,0 c 5.1247,0 10.0395,2.03583 13.6633,5.65955 3.6238,3.62372 5.6595,8.53857 5.6595,13.66333 l 0,0 c 0,10.67169 -8.6511,19.32281 -19.3228,19.32281 l 0,0 c -10.6717,0 -19.3228,-8.65112 -19.3228,-19.32281 z"
       id="path361"
       inkscape:connector-curvature="0"
       style="fill:#d9d9d9;fill-rule:evenodd" />
    <path
       d="m 1133.2349,743.53064 0,0 c 0,-10.67175 8.6511,-19.32288 19.3228,-19.32288 l 0,0 c 5.1247,0 10.0395,2.03583 13.6633,5.65955 3.6238,3.62372 5.6595,8.53857 5.6595,13.66333 l 0,0 c 0,10.67169 -8.6511,19.32281 -19.3228,19.32281 l 0,0 c -10.6717,0 -19.3228,-8.65112 -19.3228,-19.32281 z"
       id="path363"
       inkscape:connector-curvature="0"
       style="fill-rule:evenodd;stroke:#000000;stroke-width:2;stroke-linecap:butt;stroke-linejoin:round" />
    <path
       d="m 1133.2349,610.2598 0,0 c 0,-10.67175 8.6511,-19.32288 19.3228,-19.32288 l 0,0 c 5.1247,0 10.0395,2.03583 13.6633,5.65955 3.6238,3.62372 5.6595,8.53857 5.6595,13.66333 l 0,0 c 0,10.67169 -8.6511,19.32282 -19.3228,19.32282 l 0,0 c -10.6717,0 -19.3228,-8.65113 -19.3228,-19.32282 z"
       id="path365"
       inkscape:connector-curvature="0"
       style="fill:#d9d9d9;fill-rule:evenodd" />
    <path
       d="m 1133.2349,610.2598 0,0 c 0,-10.67175 8.6511,-19.32288 19.3228,-19.32288 l 0,0 c 5.1247,0 10.0395,2.03583 13.6633,5.65955 3.6238,3.62372 5.6595,8.53857 5.6595,13.66333 l 0,0 c 0,10.67169 -8.6511,19.32282 -19.3228,19.32282 l 0,0 c -10.6717,0 -19.3228,-8.65113 -19.3228,-19.32282 z"
       id="path367"
       inkscape:connector-curvature="0"
       style="fill-rule:evenodd;stroke:#000000;stroke-width:2;stroke-linecap:butt;stroke-linejoin:round" />
    <path
       d="m 1145.5039,653.2868 0,0 c 0,-4.00085 3.2433,-7.24414 7.2441,-7.24414 l 0,0 c 1.9212,0 3.7638,0.76324 5.1224,2.12176 1.3585,1.35852 2.1217,3.20112 2.1217,5.12238 l 0,0 c 0,4.00079 -3.2433,7.24408 -7.2441,7.24408 l 0,0 c -4.0008,0 -7.2441,-3.24329 -7.2441,-7.24408 z"
       id="path369"
       inkscape:connector-curvature="0"
       style="fill:#000000;fill-rule:evenodd" />
    <path
       d="m 1145.5039,653.2868 0,0 c 0,-4.00085 3.2433,-7.24414 7.2441,-7.24414 l 0,0 c 1.9212,0 3.7638,0.76324 5.1224,2.12176 1.3585,1.35852 2.1217,3.20112 2.1217,5.12238 l 0,0 c 0,4.00079 -3.2433,7.24408 -7.2441,7.24408 l 0,0 c -4.0008,0 -7.2441,-3.24329 -7.2441,-7.24408 z"
       id="path371"
       inkscape:connector-curvature="0"
       style="fill-rule:evenodd;stroke:#000000;stroke-width:1;stroke-linecap:butt;stroke-linejoin:round" />
    <path
       d="m 1145.3018,676.88464 0,0 c 0,-4.00079 3.2434,-7.24408 7.2441,-7.24408 l 0,0 c 1.9213,0 3.7638,0.76325 5.1224,2.12177 1.3585,1.35852 2.1218,3.20111 2.1218,5.12231 l 0,0 c 0,4.00085 -3.2433,7.24414 -7.2442,7.24414 l 0,0 c -4.0007,0 -7.2441,-3.24329 -7.2441,-7.24414 z"
       id="path373"
       inkscape:connector-curvature="0"
       style="fill:#000000;fill-rule:evenodd" />
    <path
       d="m 1145.3018,676.88464 0,0 c 0,-4.00079 3.2434,-7.24408 7.2441,-7.24408 l 0,0 c 1.9213,0 3.7638,0.76325 5.1224,2.12177 1.3585,1.35852 2.1218,3.20111 2.1218,5.12231 l 0,0 c 0,4.00085 -3.2433,7.24414 -7.2442,7.24414 l 0,0 c -4.0007,0 -7.2441,-3.24329 -7.2441,-7.24414 z"
       id="path375"
       inkscape:connector-curvature="0"
       style="fill-rule:evenodd;stroke:#000000;stroke-width:1;stroke-linecap:butt;stroke-linejoin:round" />
    <path
       d="m 1145.5039,700.4814 0,0 c 0,-4.00079 3.2433,-7.24414 7.2441,-7.24414 l 0,0 c 1.9212,0 3.7638,0.76324 5.1224,2.12176 1.3585,1.35852 2.1217,3.20112 2.1217,5.12238 l 0,0 c 0,4.00079 -3.2433,7.24408 -7.2441,7.24408 l 0,0 c -4.0008,0 -7.2441,-3.24329 -7.2441,-7.24408 z"
       id="path377"
       inkscape:connector-curvature="0"
       style="fill:#000000;fill-rule:evenodd" />
    <path
       d="m 1145.5039,700.4814 0,0 c 0,-4.00079 3.2433,-7.24414 7.2441,-7.24414 l 0,0 c 1.9212,0 3.7638,0.76324 5.1224,2.12176 1.3585,1.35852 2.1217,3.20112 2.1217,5.12238 l 0,0 c 0,4.00079 -3.2433,7.24408 -7.2441,7.24408 l 0,0 c -4.0008,0 -7.2441,-3.24329 -7.2441,-7.24408 z"
       id="path379"
       inkscape:connector-curvature="0"
       style="fill-rule:evenodd;stroke:#000000;stroke-width:1;stroke-linecap:butt;stroke-linejoin:round" />
    <path
       d="m 968.979,588.3307 144.4409,0 0,72.8819 -144.4409,0 z"
       id="path381"
       inkscape:connector-curvature="0"
       style="fill:#000000;fill-opacity:0;fill-rule:evenodd" />
    <path
       d="m 1026.1509,599.38416 1.2031,18.01562 -1.2031,0 q -2.4219,-8.09375 -6.9219,-11.64062 -4.4843,-3.5625 -10.7812,-3.5625 -5.2656,0 -9.53127,2.6875 -4.25,2.67187 -6.70313,8.53125 -2.4375,5.85937 -2.4375,14.5625 0,7.1875 2.29688,12.46875 2.3125,5.26562 6.9375,8.07812 4.64062,2.8125 10.57812,2.8125 5.1563,0 9.0938,-2.20312 3.9531,-2.20313 8.6718,-8.76563 l 1.2188,0.78125 q -3.9844,7.0625 -9.2969,10.35938 -5.3125,3.28125 -12.625,3.28125 -13.15625,0 -20.39062,-9.78125 -5.39063,-7.26563 -5.39063,-17.10938 0,-7.92187 3.54688,-14.5625 3.5625,-6.64062 9.79687,-10.29687 6.2344,-3.65625 13.6094,-3.65625 5.75,0 11.3281,2.8125 1.6406,0.85937 2.3438,0.85937 1.0625,0 1.8437,-0.73437 1.0156,-1.0625 1.4375,-2.9375 l 1.375,0 z m 21.9063,4.10937 0,20.9375 11.6406,0 q 4.5312,0 6.0625,-1.375 2.0312,-1.79687 2.2656,-6.32812 l 1.4375,0 0,18.4375 -1.4375,0 q -0.5469,-3.85938 -1.0937,-4.95313 -0.7032,-1.375 -2.3125,-2.15625 -1.5938,-0.78125 -4.9219,-0.78125 l -11.6406,0 0,17.46875 q 0,3.51563 0.3125,4.28125 0.3125,0.75 1.0937,1.20313 0.7813,0.45312 2.9688,0.45312 l 8.9843,0 q 4.5,0 6.5313,-0.625 2.0312,-0.625 3.9062,-2.46875 2.4219,-2.42187 4.9532,-7.29687 l 1.5625,0 -4.5625,13.28125 -40.8282,0 0,-1.45313 1.875,0 q 1.875,0 3.5625,-0.89062 1.25,-0.625 1.6875,-1.875 0.4532,-1.25 0.4532,-5.125 l 0,-34.40625 q 0,-5.04688 -1.0157,-6.21875 -1.4062,-1.5625 -4.6875,-1.5625 l -1.875,0 0,-1.4375 40.8282,0 0.5781,11.59375 -1.5156,0 q -0.8282,-4.17188 -1.8282,-5.73438 -0.9843,-1.5625 -2.9375,-2.39062 -1.5625,-0.57813 -5.5156,-0.57813 l -14.5312,0 z"
       id="path383"
       inkscape:connector-curvature="0"
       style="fill:#000000;fill-rule:nonzero" />
    <path
       d="m 1178.7166,563.70605 110.7716,0 0,128.62988 -110.7716,0 z"
       id="path385"
       inkscape:connector-curvature="0"
       style="fill:#000000;fill-opacity:0;fill-rule:evenodd" />
    <path
       d="m 1190.1072,653.5229 0,-1.03125 q 2.7188,-1.17187 3.9531,-3.04687 1.2344,-1.85938 1.2344,-3.79688 0,-0.40625 -0.1719,-0.625 -0.1562,-0.1875 -0.3281,-0.1875 -0.1406,0 -0.4219,0.17188 -0.6718,0.40625 -1.6875,0.40625 -1.375,0 -2.4062,-1.07813 -1.0156,-1.09375 -1.0156,-2.54687 0,-1.54688 1.1718,-2.71875 1.1719,-1.17188 2.8438,-1.17188 2.0156,0 3.4375,1.5625 1.4375,1.5625 1.4375,4.28125 0,3.35938 -2.0313,5.95313 -2.0312,2.60937 -6.0156,3.82812 z m 33.2813,-7.53125 -7.0782,-16.25 q -1.5937,-3.67187 -2.3593,-4.51562 -0.75,-0.84375 -1.8282,-1.17188 l 0,-0.875 11.6407,0 0,0.875 q -1.1407,0.0469 -1.6094,0.45313 -0.4688,0.39062 -0.4688,0.95312 0,0.89063 1.1719,3.51563 l 3.75,8.57812 2.5469,-6.64062 q 1.3906,-3.53125 1.3906,-4.92188 0,-0.85937 -0.5781,-1.375 -0.5781,-0.51562 -2.0313,-0.5625 l 0,-0.875 7.3438,0 0,0.875 q -1.0781,0.10938 -1.7656,0.82813 -0.6719,0.71875 -2.2657,4.85937 l -6.2656,16.25 q -2.3594,6.09375 -3.5156,7.5 -1.6094,1.96875 -4.0469,1.96875 -1.9531,0 -3.1562,-1.10937 -1.2032,-1.10938 -1.2032,-2.6875 0,-1.35938 0.8282,-2.25 0.8281,-0.89063 2.0468,-0.89063 1.1719,0 1.8907,0.75 0.7187,0.75 0.7343,2.32813 0.031,0.89062 0.2188,1.14062 0.1875,0.26563 0.5312,0.26563 0.5625,0 1.2032,-0.6875 0.9375,-0.98438 2.2031,-4.5 l 0.6719,-1.82813 z"
       id="path387"
       inkscape:connector-curvature="0"
       style="fill:#000000;fill-rule:nonzero" />
    <path
       d="m 1240.3103,641.4135 q 1.0156,0 1.7188,0.71875 0.7031,0.70312 0.7031,1.70312 0,1 -0.7188,1.70313 -0.7031,0.70312 -1.7031,0.70312 -1,0 -1.7031,-0.70312 -0.7031,-0.70313 -0.7031,-1.70313 0,-1 0.7031,-1.70312 0.7031,-0.71875 1.7031,-0.71875 z m 2.1875,7.07812 0,11.57813 q 0,1.54687 0.3594,1.98437 0.3594,0.42188 1.4062,0.48438 l 0,0.5625 -7.8906,0 0,-0.5625 q 0.9688,-0.0312 1.4375,-0.5625 0.3125,-0.35938 0.3125,-1.90625 l 0,-8.53125 q 0,-1.54688 -0.3594,-1.96875 -0.3593,-0.4375 -1.3906,-0.5 l 0,-0.57813 6.125,0 z"
       id="path389"
       inkscape:connector-curvature="0"
       style="fill:#000000;fill-rule:nonzero" />
    <path
       d="m 1285.3491,471.6811 47.559,0 0,72.8819 -47.559,0 z"
       id="path391"
       inkscape:connector-curvature="0"
       style="fill:#000000;fill-opacity:0;fill-rule:evenodd" />
    <path
       d="m 896.9526,621.90436 51.82721,0 0,-200.44464 204.17289,0 0,51.94074"
       id="path393"
       inkscape:connector-curvature="0"
       style="fill:#000000;fill-opacity:0;fill-rule:evenodd" />
    <path
       d="m 908.3226,621.90436 40.45721,0 0,-200.44464 204.17289,0 0,33.9407"
       id="path395"
       inkscape:connector-curvature="0"
       style="fill-rule:evenodd;stroke:#999999;stroke-width:3;stroke-linecap:butt;stroke-linejoin:round" />
    <path
       d="m 908.3226,626.83936 -9.87,0 0,-9.86999 9.87,0 0,9.86999 z"
       id="path397"
       inkscape:connector-curvature="0"
       style="fill-rule:nonzero;stroke:#999999;stroke-width:3;stroke-linecap:butt" />
    <path
       d="m 1147.9974,455.40042 4.9552,13.61429 4.9552,-13.61429 z"
       id="path399"
       inkscape:connector-curvature="0"
       style="fill:#999999;fill-rule:evenodd;stroke:#999999;stroke-width:3;stroke-linecap:butt" />
    <path
       d="m 1028.6194,206.75328 326.2047,0 0,117.38582"
       id="path401"
       inkscape:connector-curvature="0"
       style="fill:#000000;fill-opacity:0;fill-rule:evenodd" />
    <path
       d="m 1028.6194,206.75328 326.2047,0 0,99.38582"
       id="path403"
       inkscape:connector-curvature="0"
       style="fill-rule:evenodd;stroke:#999999;stroke-width:3;stroke-linecap:butt;stroke-linejoin:round" />
    <path
       d="m 1349.8689,306.1391 4.9552,13.61429 4.9552,-13.61429 z"
       id="path405"
       inkscape:connector-curvature="0"
       style="fill:#999999;fill-rule:evenodd;stroke:#999999;stroke-width:3;stroke-linecap:butt" />
    <path
       d="m 1302.7375,623.86615 0,-0.0477 52.0945,0 0,-207.44833"
       id="path407"
       inkscape:connector-curvature="0"
       style="fill:#000000;fill-opacity:0;fill-rule:evenodd" />
    <path
       d="m 1302.7375,623.86615 0,-0.0477 52.0945,0 0,-189.44833"
       id="path409"
       inkscape:connector-curvature="0"
       style="fill-rule:evenodd;stroke:#999999;stroke-width:3;stroke-linecap:butt;stroke-linejoin:round" />
    <path
       d="m 1359.7872,434.3701 -4.9552,-13.61429 -4.9552,13.61429 z"
       id="path411"
       inkscape:connector-curvature="0"
       style="fill:#999999;fill-rule:evenodd;stroke:#999999;stroke-width:3;stroke-linecap:butt" />
    <path
       d="m 1299.4462,324.1496 110.7717,0 0,92.22049 -110.7717,0 z"
       id="path413"
       inkscape:connector-curvature="0"
       style="fill:#000000;fill-opacity:0;fill-rule:evenodd" />
    <path
       d="m 1299.4462,324.1496 110.7717,0 0,92.22049 -110.7717,0 z"
       id="path415"
       inkscape:connector-curvature="0"
       style="fill-rule:evenodd;stroke:#999999;stroke-width:3;stroke-linecap:butt;stroke-linejoin:round;stroke-dasharray:12, 9" />
    <path
       d="m 1322.2572,324.1496 76.945,0 0,92.22049 -76.945,0 z"
       id="path417"
       inkscape:connector-curvature="0"
       style="fill:#000000;fill-opacity:0;fill-rule:evenodd" />
    <path
       d="m 1332.8197,369.99734 18.7969,0 0,-18.75 5.1094,0 0,18.75 18.7968,0 0,5.15625 -18.7968,0 0,18.59375 -5.1094,0 0,-18.59375 -18.7969,0 0,-5.15625 z"
       id="path419"
       inkscape:connector-curvature="0"
       style="fill:#000000;fill-rule:nonzero" />
  </g>
</svg>
